<?xml version="1.0" encoding="UTF-8" standalone="no"?>
<!-- Created with Inkscape (http://www.inkscape.org/) -->

<svg
   xmlns:dc="http://purl.org/dc/elements/1.1/"
   xmlns:cc="http://creativecommons.org/ns#"
   xmlns:rdf="http://www.w3.org/1999/02/22-rdf-syntax-ns#"
   xmlns:svg="http://www.w3.org/2000/svg"
   xmlns="http://www.w3.org/2000/svg"
   xmlns:sodipodi="http://sodipodi.sourceforge.net/DTD/sodipodi-0.dtd"
   xmlns:inkscape="http://www.inkscape.org/namespaces/inkscape"
   width="744.09448819"
   height="1052.3622047"
   id="svg2"
   version="1.1"
   inkscape:version="0.48.3.1 r9886"
   sodipodi:docname="real_fuel_bundle.svg">
  <defs
     id="defs4">
    <inkscape:perspective
       sodipodi:type="inkscape:persp3d"
       inkscape:vp_x="17.142857 : 481.18109 : 1"
       inkscape:vp_y="0 : 1000 : 0"
       inkscape:vp_z="755.52305 : 480.4668 : 1"
       inkscape:persp3d-origin="372.04724 : 350.78739 : 1"
       id="perspective2985" />
    <inkscape:perspective
       sodipodi:type="inkscape:persp3d"
       inkscape:vp_x="-117.76468 : 909.34008 : 1"
       inkscape:vp_y="0 : 1000 : 0"
       inkscape:vp_z="626.3298 : 909.34008 : 1"
       inkscape:persp3d-origin="254.28256 : 733.94638 : 1"
       id="perspective2985-2" />
  </defs>
  <sodipodi:namedview
     id="base"
     pagecolor="#ffffff"
     bordercolor="#666666"
     borderopacity="1.0"
     inkscape:pageopacity="0.0"
     inkscape:pageshadow="2"
     inkscape:zoom="0.98994949"
     inkscape:cx="518.72989"
     inkscape:cy="432.9074"
     inkscape:document-units="px"
     inkscape:current-layer="layer1"
     showgrid="false"
     inkscape:window-width="1865"
     inkscape:window-height="1056"
     inkscape:window-x="55"
     inkscape:window-y="24"
     inkscape:window-maximized="1">
    <inkscape:grid
       type="xygrid"
       id="grid5620" />
  </sodipodi:namedview>
  <metadata
     id="metadata7">
    <rdf:RDF>
      <cc:Work
         rdf:about="">
        <dc:format>image/svg+xml</dc:format>
        <dc:type
           rdf:resource="http://purl.org/dc/dcmitype/StillImage" />
        <dc:title></dc:title>
      </cc:Work>
    </rdf:RDF>
  </metadata>
  <g
     inkscape:label="Layer 1"
     inkscape:groupmode="layer"
     id="layer1">
    <path
       inkscape:connector-curvature="0"
       id="path7614"
       style="fill:#353564;fill-opacity:1;fill-rule:evenodd;stroke:#000000;stroke-linejoin:miter;stroke-opacity:1"
       d="m 282.87852,764.94252 0,-94.11133 109.10222,-22.83771 0,72.38728 z" />
    <path
       inkscape:connector-curvature="0"
       id="path7616"
       style="fill:#e9e9ff;fill-opacity:1;fill-rule:evenodd;stroke:#000000;stroke-linejoin:miter;stroke-opacity:1"
       d="m 391.98074,720.38076 99.34739,39.54402 0,-91.57287 -99.34739,-20.35843 z" />
    <path
       inkscape:connector-curvature="0"
       id="path7618"
       style="fill:#afafde;fill-opacity:1;fill-rule:evenodd;stroke:#000000;stroke-linejoin:miter;stroke-opacity:1"
       d="m 282.87852,670.83119 99.48053,37.30491 108.96908,-39.78419 -99.34739,-20.35843 z" />
    <g
       id="g6144"
       transform="matrix(0.78324546,0,0,0.78324546,254.15792,113.88853)">
      <rect
         y="372.36218"
         x="50"
         height="242.85715"
         width="242.85715"
         id="rect5357"
         style="fill:#afafde;fill-opacity:1;stroke:#000000;stroke-linejoin:miter;stroke-opacity:1" />
      <g
         id="g5878">
        <path
           sodipodi:type="arc"
           style="fill:#ff0000;fill-opacity:1;stroke:#ffffff;stroke-linejoin:miter;stroke-opacity:1"
           id="path5596"
           sodipodi:cx="-801.42859"
           sodipodi:cy="133.79076"
           sodipodi:rx="14.285714"
           sodipodi:ry="14.285714"
           d="m -787.14287,133.79076 c 0,7.88978 -6.39594,14.28571 -14.28572,14.28571 -7.88978,0 -14.28571,-6.39593 -14.28571,-14.28571 0,-7.88979 6.39593,-14.28572 14.28571,-14.28572 7.88978,0 14.28572,6.39593 14.28572,14.28572 z"
           transform="matrix(0.86797069,0,0,0.86797069,764.0161,272.92102)" />
        <path
           sodipodi:type="arc"
           style="fill:#ff0000;fill-opacity:1;stroke:#ffffff;stroke-linejoin:miter;stroke-opacity:1"
           id="path5596-2"
           sodipodi:cx="-801.42859"
           sodipodi:cy="133.79076"
           sodipodi:rx="14.285714"
           sodipodi:ry="14.285714"
           d="m -787.14287,133.79076 c 0,7.88978 -6.39594,14.28571 -14.28572,14.28571 -7.88978,0 -14.28571,-6.39593 -14.28571,-14.28571 0,-7.88979 6.39593,-14.28572 14.28571,-14.28572 7.88978,0 14.28572,6.39593 14.28572,14.28572 z"
           transform="matrix(0.86797069,0,0,0.86797069,794.02311,272.92102)" />
        <path
           transform="matrix(0.86797069,0,0,0.86797069,823.03811,272.92102)"
           d="m -787.14287,133.79076 c 0,7.88978 -6.39594,14.28571 -14.28572,14.28571 -7.88978,0 -14.28571,-6.39593 -14.28571,-14.28571 0,-7.88979 6.39593,-14.28572 14.28571,-14.28572 7.88978,0 14.28572,6.39593 14.28572,14.28572 z"
           sodipodi:ry="14.285714"
           sodipodi:rx="14.285714"
           sodipodi:cy="133.79076"
           sodipodi:cx="-801.42859"
           id="path5622"
           style="fill:#ff0000;fill-opacity:1;stroke:#ffffff;stroke-linejoin:miter;stroke-opacity:1"
           sodipodi:type="arc" />
        <path
           transform="matrix(0.86797069,0,0,0.86797069,853.04511,272.92102)"
           d="m -787.14287,133.79076 c 0,7.88978 -6.39594,14.28571 -14.28572,14.28571 -7.88978,0 -14.28571,-6.39593 -14.28571,-14.28571 0,-7.88979 6.39593,-14.28572 14.28571,-14.28572 7.88978,0 14.28572,6.39593 14.28572,14.28572 z"
           sodipodi:ry="14.285714"
           sodipodi:rx="14.285714"
           sodipodi:cy="133.79076"
           sodipodi:cx="-801.42859"
           id="path5624"
           style="fill:#ff0000;fill-opacity:1;stroke:#ffffff;stroke-linejoin:miter;stroke-opacity:1"
           sodipodi:type="arc" />
        <path
           transform="matrix(0.86797069,0,0,0.86797069,882.0161,272.92102)"
           d="m -787.14287,133.79076 c 0,7.88978 -6.39594,14.28571 -14.28572,14.28571 -7.88978,0 -14.28571,-6.39593 -14.28571,-14.28571 0,-7.88979 6.39593,-14.28572 14.28571,-14.28572 7.88978,0 14.28572,6.39593 14.28572,14.28572 z"
           sodipodi:ry="14.285714"
           sodipodi:rx="14.285714"
           sodipodi:cy="133.79076"
           sodipodi:cx="-801.42859"
           id="path5626"
           style="fill:#ff0000;fill-opacity:1;stroke:#ffffff;stroke-linejoin:miter;stroke-opacity:1"
           sodipodi:type="arc" />
        <path
           transform="matrix(0.86797069,0,0,0.86797069,912.02311,272.92102)"
           d="m -787.14287,133.79076 c 0,7.88978 -6.39594,14.28571 -14.28572,14.28571 -7.88978,0 -14.28571,-6.39593 -14.28571,-14.28571 0,-7.88979 6.39593,-14.28572 14.28571,-14.28572 7.88978,0 14.28572,6.39593 14.28572,14.28572 z"
           sodipodi:ry="14.285714"
           sodipodi:rx="14.285714"
           sodipodi:cy="133.79076"
           sodipodi:cx="-801.42859"
           id="path5628"
           style="fill:#ff0000;fill-opacity:1;stroke:#ffffff;stroke-linejoin:miter;stroke-opacity:1"
           sodipodi:type="arc" />
        <path
           sodipodi:type="arc"
           style="fill:#ff0000;fill-opacity:1;stroke:#ffffff;stroke-linejoin:miter;stroke-opacity:1"
           id="path5630"
           sodipodi:cx="-801.42859"
           sodipodi:cy="133.79076"
           sodipodi:rx="14.285714"
           sodipodi:ry="14.285714"
           d="m -787.14287,133.79076 c 0,7.88978 -6.39594,14.28571 -14.28572,14.28571 -7.88978,0 -14.28571,-6.39593 -14.28571,-14.28571 0,-7.88979 6.39593,-14.28572 14.28571,-14.28572 7.88978,0 14.28572,6.39593 14.28572,14.28572 z"
           transform="matrix(0.86797069,0,0,0.86797069,941.03811,272.92102)" />
        <path
           sodipodi:type="arc"
           style="fill:#ff0000;fill-opacity:1;stroke:#ffffff;stroke-linejoin:miter;stroke-opacity:1"
           id="path5632"
           sodipodi:cx="-801.42859"
           sodipodi:cy="133.79076"
           sodipodi:rx="14.285714"
           sodipodi:ry="14.285714"
           d="m -787.14287,133.79076 c 0,7.88978 -6.39594,14.28571 -14.28572,14.28571 -7.88978,0 -14.28571,-6.39593 -14.28571,-14.28571 0,-7.88979 6.39593,-14.28572 14.28571,-14.28572 7.88978,0 14.28572,6.39593 14.28572,14.28572 z"
           transform="matrix(0.86797069,0,0,0.86797069,971.04511,272.92102)" />
        <path
           transform="matrix(0.86797069,0,0,0.86797069,764.0161,302.92102)"
           d="m -787.14287,133.79076 c 0,7.88978 -6.39594,14.28571 -14.28572,14.28571 -7.88978,0 -14.28571,-6.39593 -14.28571,-14.28571 0,-7.88979 6.39593,-14.28572 14.28571,-14.28572 7.88978,0 14.28572,6.39593 14.28572,14.28572 z"
           sodipodi:ry="14.285714"
           sodipodi:rx="14.285714"
           sodipodi:cy="133.79076"
           sodipodi:cx="-801.42859"
           id="path5634"
           style="fill:#ff0000;fill-opacity:1;stroke:#ffffff;stroke-linejoin:miter;stroke-opacity:1"
           sodipodi:type="arc" />
        <path
           transform="matrix(0.86797069,0,0,0.86797069,794.02311,302.92102)"
           d="m -787.14287,133.79076 c 0,7.88978 -6.39594,14.28571 -14.28572,14.28571 -7.88978,0 -14.28571,-6.39593 -14.28571,-14.28571 0,-7.88979 6.39593,-14.28572 14.28571,-14.28572 7.88978,0 14.28572,6.39593 14.28572,14.28572 z"
           sodipodi:ry="14.285714"
           sodipodi:rx="14.285714"
           sodipodi:cy="133.79076"
           sodipodi:cx="-801.42859"
           id="path5636"
           style="fill:#ff0000;fill-opacity:1;stroke:#ffffff;stroke-linejoin:miter;stroke-opacity:1"
           sodipodi:type="arc" />
        <path
           sodipodi:type="arc"
           style="fill:#ff0000;fill-opacity:1;stroke:#ffffff;stroke-linejoin:miter;stroke-opacity:1"
           id="path5638"
           sodipodi:cx="-801.42859"
           sodipodi:cy="133.79076"
           sodipodi:rx="14.285714"
           sodipodi:ry="14.285714"
           d="m -787.14287,133.79076 c 0,7.88978 -6.39594,14.28571 -14.28572,14.28571 -7.88978,0 -14.28571,-6.39593 -14.28571,-14.28571 0,-7.88979 6.39593,-14.28572 14.28571,-14.28572 7.88978,0 14.28572,6.39593 14.28572,14.28572 z"
           transform="matrix(0.86797069,0,0,0.86797069,823.03811,302.92102)" />
        <path
           sodipodi:type="arc"
           style="fill:#ff0000;fill-opacity:1;stroke:#ffffff;stroke-linejoin:miter;stroke-opacity:1"
           id="path5640"
           sodipodi:cx="-801.42859"
           sodipodi:cy="133.79076"
           sodipodi:rx="14.285714"
           sodipodi:ry="14.285714"
           d="m -787.14287,133.79076 c 0,7.88978 -6.39594,14.28571 -14.28572,14.28571 -7.88978,0 -14.28571,-6.39593 -14.28571,-14.28571 0,-7.88979 6.39593,-14.28572 14.28571,-14.28572 7.88978,0 14.28572,6.39593 14.28572,14.28572 z"
           transform="matrix(0.86797069,0,0,0.86797069,853.04511,302.92102)" />
        <path
           sodipodi:type="arc"
           style="fill:#ff0000;fill-opacity:1;stroke:#ffffff;stroke-linejoin:miter;stroke-opacity:1"
           id="path5642"
           sodipodi:cx="-801.42859"
           sodipodi:cy="133.79076"
           sodipodi:rx="14.285714"
           sodipodi:ry="14.285714"
           d="m -787.14287,133.79076 c 0,7.88978 -6.39594,14.28571 -14.28572,14.28571 -7.88978,0 -14.28571,-6.39593 -14.28571,-14.28571 0,-7.88979 6.39593,-14.28572 14.28571,-14.28572 7.88978,0 14.28572,6.39593 14.28572,14.28572 z"
           transform="matrix(0.86797069,0,0,0.86797069,882.0161,302.92102)" />
        <path
           sodipodi:type="arc"
           style="fill:#ff0000;fill-opacity:1;stroke:#ffffff;stroke-linejoin:miter;stroke-opacity:1"
           id="path5644"
           sodipodi:cx="-801.42859"
           sodipodi:cy="133.79076"
           sodipodi:rx="14.285714"
           sodipodi:ry="14.285714"
           d="m -787.14287,133.79076 c 0,7.88978 -6.39594,14.28571 -14.28572,14.28571 -7.88978,0 -14.28571,-6.39593 -14.28571,-14.28571 0,-7.88979 6.39593,-14.28572 14.28571,-14.28572 7.88978,0 14.28572,6.39593 14.28572,14.28572 z"
           transform="matrix(0.86797069,0,0,0.86797069,912.02311,302.92102)" />
        <path
           transform="matrix(0.86797069,0,0,0.86797069,941.03811,302.92102)"
           d="m -787.14287,133.79076 c 0,7.88978 -6.39594,14.28571 -14.28572,14.28571 -7.88978,0 -14.28571,-6.39593 -14.28571,-14.28571 0,-7.88979 6.39593,-14.28572 14.28571,-14.28572 7.88978,0 14.28572,6.39593 14.28572,14.28572 z"
           sodipodi:ry="14.285714"
           sodipodi:rx="14.285714"
           sodipodi:cy="133.79076"
           sodipodi:cx="-801.42859"
           id="path5646"
           style="fill:#ff0000;fill-opacity:1;stroke:#ffffff;stroke-linejoin:miter;stroke-opacity:1"
           sodipodi:type="arc" />
        <path
           transform="matrix(0.86797069,0,0,0.86797069,971.04511,302.92102)"
           d="m -787.14287,133.79076 c 0,7.88978 -6.39594,14.28571 -14.28572,14.28571 -7.88978,0 -14.28571,-6.39593 -14.28571,-14.28571 0,-7.88979 6.39593,-14.28572 14.28571,-14.28572 7.88978,0 14.28572,6.39593 14.28572,14.28572 z"
           sodipodi:ry="14.285714"
           sodipodi:rx="14.285714"
           sodipodi:cy="133.79076"
           sodipodi:cx="-801.42859"
           id="path5648"
           style="fill:#ff0000;fill-opacity:1;stroke:#ffffff;stroke-linejoin:miter;stroke-opacity:1"
           sodipodi:type="arc" />
        <path
           transform="matrix(0.86797069,0,0,0.86797069,764.0161,332.92102)"
           d="m -787.14287,133.79076 c 0,7.88978 -6.39594,14.28571 -14.28572,14.28571 -7.88978,0 -14.28571,-6.39593 -14.28571,-14.28571 0,-7.88979 6.39593,-14.28572 14.28571,-14.28572 7.88978,0 14.28572,6.39593 14.28572,14.28572 z"
           sodipodi:ry="14.285714"
           sodipodi:rx="14.285714"
           sodipodi:cy="133.79076"
           sodipodi:cx="-801.42859"
           id="path5650"
           style="fill:#ff0000;fill-opacity:1;stroke:#ffffff;stroke-linejoin:miter;stroke-opacity:1"
           sodipodi:type="arc" />
        <path
           transform="matrix(0.86797069,0,0,0.86797069,794.02311,332.92102)"
           d="m -787.14287,133.79076 c 0,7.88978 -6.39594,14.28571 -14.28572,14.28571 -7.88978,0 -14.28571,-6.39593 -14.28571,-14.28571 0,-7.88979 6.39593,-14.28572 14.28571,-14.28572 7.88978,0 14.28572,6.39593 14.28572,14.28572 z"
           sodipodi:ry="14.285714"
           sodipodi:rx="14.285714"
           sodipodi:cy="133.79076"
           sodipodi:cx="-801.42859"
           id="path5652"
           style="fill:#ff0000;fill-opacity:1;stroke:#ffffff;stroke-linejoin:miter;stroke-opacity:1"
           sodipodi:type="arc" />
        <path
           sodipodi:type="arc"
           style="fill:#ff0000;fill-opacity:1;stroke:#ffffff;stroke-linejoin:miter;stroke-opacity:1"
           id="path5654"
           sodipodi:cx="-801.42859"
           sodipodi:cy="133.79076"
           sodipodi:rx="14.285714"
           sodipodi:ry="14.285714"
           d="m -787.14287,133.79076 c 0,7.88978 -6.39594,14.28571 -14.28572,14.28571 -7.88978,0 -14.28571,-6.39593 -14.28571,-14.28571 0,-7.88979 6.39593,-14.28572 14.28571,-14.28572 7.88978,0 14.28572,6.39593 14.28572,14.28572 z"
           transform="matrix(0.86797069,0,0,0.86797069,823.03811,332.92102)" />
        <path
           sodipodi:type="arc"
           style="fill:#ff0000;fill-opacity:1;stroke:#ffffff;stroke-linejoin:miter;stroke-opacity:1"
           id="path5656"
           sodipodi:cx="-801.42859"
           sodipodi:cy="133.79076"
           sodipodi:rx="14.285714"
           sodipodi:ry="14.285714"
           d="m -787.14287,133.79076 c 0,7.88978 -6.39594,14.28571 -14.28572,14.28571 -7.88978,0 -14.28571,-6.39593 -14.28571,-14.28571 0,-7.88979 6.39593,-14.28572 14.28571,-14.28572 7.88978,0 14.28572,6.39593 14.28572,14.28572 z"
           transform="matrix(0.86797069,0,0,0.86797069,853.04511,332.92102)" />
        <path
           sodipodi:type="arc"
           style="fill:#ff0000;fill-opacity:1;stroke:#ffffff;stroke-linejoin:miter;stroke-opacity:1"
           id="path5658"
           sodipodi:cx="-801.42859"
           sodipodi:cy="133.79076"
           sodipodi:rx="14.285714"
           sodipodi:ry="14.285714"
           d="m -787.14287,133.79076 c 0,7.88978 -6.39594,14.28571 -14.28572,14.28571 -7.88978,0 -14.28571,-6.39593 -14.28571,-14.28571 0,-7.88979 6.39593,-14.28572 14.28571,-14.28572 7.88978,0 14.28572,6.39593 14.28572,14.28572 z"
           transform="matrix(0.86797069,0,0,0.86797069,882.0161,332.92102)" />
        <path
           sodipodi:type="arc"
           style="fill:#ff0000;fill-opacity:1;stroke:#ffffff;stroke-linejoin:miter;stroke-opacity:1"
           id="path5660"
           sodipodi:cx="-801.42859"
           sodipodi:cy="133.79076"
           sodipodi:rx="14.285714"
           sodipodi:ry="14.285714"
           d="m -787.14287,133.79076 c 0,7.88978 -6.39594,14.28571 -14.28572,14.28571 -7.88978,0 -14.28571,-6.39593 -14.28571,-14.28571 0,-7.88979 6.39593,-14.28572 14.28571,-14.28572 7.88978,0 14.28572,6.39593 14.28572,14.28572 z"
           transform="matrix(0.86797069,0,0,0.86797069,912.02311,332.92102)" />
        <path
           transform="matrix(0.86797069,0,0,0.86797069,941.03811,332.92102)"
           d="m -787.14287,133.79076 c 0,7.88978 -6.39594,14.28571 -14.28572,14.28571 -7.88978,0 -14.28571,-6.39593 -14.28571,-14.28571 0,-7.88979 6.39593,-14.28572 14.28571,-14.28572 7.88978,0 14.28572,6.39593 14.28572,14.28572 z"
           sodipodi:ry="14.285714"
           sodipodi:rx="14.285714"
           sodipodi:cy="133.79076"
           sodipodi:cx="-801.42859"
           id="path5662"
           style="fill:#ff0000;fill-opacity:1;stroke:#ffffff;stroke-linejoin:miter;stroke-opacity:1"
           sodipodi:type="arc" />
        <path
           transform="matrix(0.86797069,0,0,0.86797069,971.04511,332.92102)"
           d="m -787.14287,133.79076 c 0,7.88978 -6.39594,14.28571 -14.28572,14.28571 -7.88978,0 -14.28571,-6.39593 -14.28571,-14.28571 0,-7.88979 6.39593,-14.28572 14.28571,-14.28572 7.88978,0 14.28572,6.39593 14.28572,14.28572 z"
           sodipodi:ry="14.285714"
           sodipodi:rx="14.285714"
           sodipodi:cy="133.79076"
           sodipodi:cx="-801.42859"
           id="path5664"
           style="fill:#ff0000;fill-opacity:1;stroke:#ffffff;stroke-linejoin:miter;stroke-opacity:1"
           sodipodi:type="arc" />
        <path
           sodipodi:type="arc"
           style="fill:#ff0000;fill-opacity:1;stroke:#ffffff;stroke-linejoin:miter;stroke-opacity:1"
           id="path5666"
           sodipodi:cx="-801.42859"
           sodipodi:cy="133.79076"
           sodipodi:rx="14.285714"
           sodipodi:ry="14.285714"
           d="m -787.14287,133.79076 c 0,7.88978 -6.39594,14.28571 -14.28572,14.28571 -7.88978,0 -14.28571,-6.39593 -14.28571,-14.28571 0,-7.88979 6.39593,-14.28572 14.28571,-14.28572 7.88978,0 14.28572,6.39593 14.28572,14.28572 z"
           transform="matrix(0.86797069,0,0,0.86797069,764.0161,362.92102)" />
        <path
           sodipodi:type="arc"
           style="fill:#ff0000;fill-opacity:1;stroke:#ffffff;stroke-linejoin:miter;stroke-opacity:1"
           id="path5668"
           sodipodi:cx="-801.42859"
           sodipodi:cy="133.79076"
           sodipodi:rx="14.285714"
           sodipodi:ry="14.285714"
           d="m -787.14287,133.79076 c 0,7.88978 -6.39594,14.28571 -14.28572,14.28571 -7.88978,0 -14.28571,-6.39593 -14.28571,-14.28571 0,-7.88979 6.39593,-14.28572 14.28571,-14.28572 7.88978,0 14.28572,6.39593 14.28572,14.28572 z"
           transform="matrix(0.86797069,0,0,0.86797069,794.02311,362.92102)" />
        <path
           transform="matrix(0.86797069,0,0,0.86797069,823.03811,362.92102)"
           d="m -787.14287,133.79076 c 0,7.88978 -6.39594,14.28571 -14.28572,14.28571 -7.88978,0 -14.28571,-6.39593 -14.28571,-14.28571 0,-7.88979 6.39593,-14.28572 14.28571,-14.28572 7.88978,0 14.28572,6.39593 14.28572,14.28572 z"
           sodipodi:ry="14.285714"
           sodipodi:rx="14.285714"
           sodipodi:cy="133.79076"
           sodipodi:cx="-801.42859"
           id="path5670"
           style="fill:#ff0000;fill-opacity:1;stroke:#ffffff;stroke-linejoin:miter;stroke-opacity:1"
           sodipodi:type="arc" />
        <path
           transform="matrix(0.86797069,0,0,0.86797069,853.04511,362.92102)"
           d="m -787.14287,133.79076 c 0,7.88978 -6.39594,14.28571 -14.28572,14.28571 -7.88978,0 -14.28571,-6.39593 -14.28571,-14.28571 0,-7.88979 6.39593,-14.28572 14.28571,-14.28572 7.88978,0 14.28572,6.39593 14.28572,14.28572 z"
           sodipodi:ry="14.285714"
           sodipodi:rx="14.285714"
           sodipodi:cy="133.79076"
           sodipodi:cx="-801.42859"
           id="path5672"
           style="fill:#ff0000;fill-opacity:1;stroke:#ffffff;stroke-linejoin:miter;stroke-opacity:1"
           sodipodi:type="arc" />
        <path
           transform="matrix(0.86797069,0,0,0.86797069,882.0161,362.92102)"
           d="m -787.14287,133.79076 c 0,7.88978 -6.39594,14.28571 -14.28572,14.28571 -7.88978,0 -14.28571,-6.39593 -14.28571,-14.28571 0,-7.88979 6.39593,-14.28572 14.28571,-14.28572 7.88978,0 14.28572,6.39593 14.28572,14.28572 z"
           sodipodi:ry="14.285714"
           sodipodi:rx="14.285714"
           sodipodi:cy="133.79076"
           sodipodi:cx="-801.42859"
           id="path5674"
           style="fill:#ff0000;fill-opacity:1;stroke:#ffffff;stroke-linejoin:miter;stroke-opacity:1"
           sodipodi:type="arc" />
        <path
           transform="matrix(0.86797069,0,0,0.86797069,912.02311,362.92102)"
           d="m -787.14287,133.79076 c 0,7.88978 -6.39594,14.28571 -14.28572,14.28571 -7.88978,0 -14.28571,-6.39593 -14.28571,-14.28571 0,-7.88979 6.39593,-14.28572 14.28571,-14.28572 7.88978,0 14.28572,6.39593 14.28572,14.28572 z"
           sodipodi:ry="14.285714"
           sodipodi:rx="14.285714"
           sodipodi:cy="133.79076"
           sodipodi:cx="-801.42859"
           id="path5676"
           style="fill:#ff0000;fill-opacity:1;stroke:#ffffff;stroke-linejoin:miter;stroke-opacity:1"
           sodipodi:type="arc" />
        <path
           sodipodi:type="arc"
           style="fill:#ff0000;fill-opacity:1;stroke:#ffffff;stroke-linejoin:miter;stroke-opacity:1"
           id="path5678"
           sodipodi:cx="-801.42859"
           sodipodi:cy="133.79076"
           sodipodi:rx="14.285714"
           sodipodi:ry="14.285714"
           d="m -787.14287,133.79076 c 0,7.88978 -6.39594,14.28571 -14.28572,14.28571 -7.88978,0 -14.28571,-6.39593 -14.28571,-14.28571 0,-7.88979 6.39593,-14.28572 14.28571,-14.28572 7.88978,0 14.28572,6.39593 14.28572,14.28572 z"
           transform="matrix(0.86797069,0,0,0.86797069,941.03811,362.92102)" />
        <path
           sodipodi:type="arc"
           style="fill:#ff0000;fill-opacity:1;stroke:#ffffff;stroke-linejoin:miter;stroke-opacity:1"
           id="path5680"
           sodipodi:cx="-801.42859"
           sodipodi:cy="133.79076"
           sodipodi:rx="14.285714"
           sodipodi:ry="14.285714"
           d="m -787.14287,133.79076 c 0,7.88978 -6.39594,14.28571 -14.28572,14.28571 -7.88978,0 -14.28571,-6.39593 -14.28571,-14.28571 0,-7.88979 6.39593,-14.28572 14.28571,-14.28572 7.88978,0 14.28572,6.39593 14.28572,14.28572 z"
           transform="matrix(0.86797069,0,0,0.86797069,971.04511,362.92102)" />
        <path
           transform="matrix(0.86797069,0,0,0.86797069,764.0161,392.92102)"
           d="m -787.14287,133.79076 c 0,7.88978 -6.39594,14.28571 -14.28572,14.28571 -7.88978,0 -14.28571,-6.39593 -14.28571,-14.28571 0,-7.88979 6.39593,-14.28572 14.28571,-14.28572 7.88978,0 14.28572,6.39593 14.28572,14.28572 z"
           sodipodi:ry="14.285714"
           sodipodi:rx="14.285714"
           sodipodi:cy="133.79076"
           sodipodi:cx="-801.42859"
           id="path5682"
           style="fill:#ff0000;fill-opacity:1;stroke:#ffffff;stroke-linejoin:miter;stroke-opacity:1"
           sodipodi:type="arc" />
        <path
           transform="matrix(0.86797069,0,0,0.86797069,794.02311,392.92102)"
           d="m -787.14287,133.79076 c 0,7.88978 -6.39594,14.28571 -14.28572,14.28571 -7.88978,0 -14.28571,-6.39593 -14.28571,-14.28571 0,-7.88979 6.39593,-14.28572 14.28571,-14.28572 7.88978,0 14.28572,6.39593 14.28572,14.28572 z"
           sodipodi:ry="14.285714"
           sodipodi:rx="14.285714"
           sodipodi:cy="133.79076"
           sodipodi:cx="-801.42859"
           id="path5684"
           style="fill:#ff0000;fill-opacity:1;stroke:#ffffff;stroke-linejoin:miter;stroke-opacity:1"
           sodipodi:type="arc" />
        <path
           sodipodi:type="arc"
           style="fill:#ff0000;fill-opacity:1;stroke:#ffffff;stroke-linejoin:miter;stroke-opacity:1"
           id="path5686"
           sodipodi:cx="-801.42859"
           sodipodi:cy="133.79076"
           sodipodi:rx="14.285714"
           sodipodi:ry="14.285714"
           d="m -787.14287,133.79076 c 0,7.88978 -6.39594,14.28571 -14.28572,14.28571 -7.88978,0 -14.28571,-6.39593 -14.28571,-14.28571 0,-7.88979 6.39593,-14.28572 14.28571,-14.28572 7.88978,0 14.28572,6.39593 14.28572,14.28572 z"
           transform="matrix(0.86797069,0,0,0.86797069,823.03811,392.92102)" />
        <path
           sodipodi:type="arc"
           style="fill:#ff0000;fill-opacity:1;stroke:#ffffff;stroke-linejoin:miter;stroke-opacity:1"
           id="path5688"
           sodipodi:cx="-801.42859"
           sodipodi:cy="133.79076"
           sodipodi:rx="14.285714"
           sodipodi:ry="14.285714"
           d="m -787.14287,133.79076 c 0,7.88978 -6.39594,14.28571 -14.28572,14.28571 -7.88978,0 -14.28571,-6.39593 -14.28571,-14.28571 0,-7.88979 6.39593,-14.28572 14.28571,-14.28572 7.88978,0 14.28572,6.39593 14.28572,14.28572 z"
           transform="matrix(0.86797069,0,0,0.86797069,853.04511,392.92102)" />
        <path
           sodipodi:type="arc"
           style="fill:#ff0000;fill-opacity:1;stroke:#ffffff;stroke-linejoin:miter;stroke-opacity:1"
           id="path5690"
           sodipodi:cx="-801.42859"
           sodipodi:cy="133.79076"
           sodipodi:rx="14.285714"
           sodipodi:ry="14.285714"
           d="m -787.14287,133.79076 c 0,7.88978 -6.39594,14.28571 -14.28572,14.28571 -7.88978,0 -14.28571,-6.39593 -14.28571,-14.28571 0,-7.88979 6.39593,-14.28572 14.28571,-14.28572 7.88978,0 14.28572,6.39593 14.28572,14.28572 z"
           transform="matrix(0.86797069,0,0,0.86797069,882.0161,392.92102)" />
        <path
           sodipodi:type="arc"
           style="fill:#ff0000;fill-opacity:1;stroke:#ffffff;stroke-linejoin:miter;stroke-opacity:1"
           id="path5692"
           sodipodi:cx="-801.42859"
           sodipodi:cy="133.79076"
           sodipodi:rx="14.285714"
           sodipodi:ry="14.285714"
           d="m -787.14287,133.79076 c 0,7.88978 -6.39594,14.28571 -14.28572,14.28571 -7.88978,0 -14.28571,-6.39593 -14.28571,-14.28571 0,-7.88979 6.39593,-14.28572 14.28571,-14.28572 7.88978,0 14.28572,6.39593 14.28572,14.28572 z"
           transform="matrix(0.86797069,0,0,0.86797069,912.02311,392.92102)" />
        <path
           transform="matrix(0.86797069,0,0,0.86797069,941.03811,392.92102)"
           d="m -787.14287,133.79076 c 0,7.88978 -6.39594,14.28571 -14.28572,14.28571 -7.88978,0 -14.28571,-6.39593 -14.28571,-14.28571 0,-7.88979 6.39593,-14.28572 14.28571,-14.28572 7.88978,0 14.28572,6.39593 14.28572,14.28572 z"
           sodipodi:ry="14.285714"
           sodipodi:rx="14.285714"
           sodipodi:cy="133.79076"
           sodipodi:cx="-801.42859"
           id="path5694"
           style="fill:#ff0000;fill-opacity:1;stroke:#ffffff;stroke-linejoin:miter;stroke-opacity:1"
           sodipodi:type="arc" />
        <path
           transform="matrix(0.86797069,0,0,0.86797069,971.04511,392.92102)"
           d="m -787.14287,133.79076 c 0,7.88978 -6.39594,14.28571 -14.28572,14.28571 -7.88978,0 -14.28571,-6.39593 -14.28571,-14.28571 0,-7.88979 6.39593,-14.28572 14.28571,-14.28572 7.88978,0 14.28572,6.39593 14.28572,14.28572 z"
           sodipodi:ry="14.285714"
           sodipodi:rx="14.285714"
           sodipodi:cy="133.79076"
           sodipodi:cx="-801.42859"
           id="path5696"
           style="fill:#ff0000;fill-opacity:1;stroke:#ffffff;stroke-linejoin:miter;stroke-opacity:1"
           sodipodi:type="arc" />
        <path
           sodipodi:type="arc"
           style="fill:#ff0000;fill-opacity:1;stroke:#ffffff;stroke-linejoin:miter;stroke-opacity:1"
           id="path5698"
           sodipodi:cx="-801.42859"
           sodipodi:cy="133.79076"
           sodipodi:rx="14.285714"
           sodipodi:ry="14.285714"
           d="m -787.14287,133.79076 c 0,7.88978 -6.39594,14.28571 -14.28572,14.28571 -7.88978,0 -14.28571,-6.39593 -14.28571,-14.28571 0,-7.88979 6.39593,-14.28572 14.28571,-14.28572 7.88978,0 14.28572,6.39593 14.28572,14.28572 z"
           transform="matrix(0.86797069,0,0,0.86797069,764.0161,422.92102)" />
        <path
           sodipodi:type="arc"
           style="fill:#ff0000;fill-opacity:1;stroke:#ffffff;stroke-linejoin:miter;stroke-opacity:1"
           id="path5700"
           sodipodi:cx="-801.42859"
           sodipodi:cy="133.79076"
           sodipodi:rx="14.285714"
           sodipodi:ry="14.285714"
           d="m -787.14287,133.79076 c 0,7.88978 -6.39594,14.28571 -14.28572,14.28571 -7.88978,0 -14.28571,-6.39593 -14.28571,-14.28571 0,-7.88979 6.39593,-14.28572 14.28571,-14.28572 7.88978,0 14.28572,6.39593 14.28572,14.28572 z"
           transform="matrix(0.86797069,0,0,0.86797069,794.02311,422.92102)" />
        <path
           transform="matrix(0.86797069,0,0,0.86797069,823.03811,422.92102)"
           d="m -787.14287,133.79076 c 0,7.88978 -6.39594,14.28571 -14.28572,14.28571 -7.88978,0 -14.28571,-6.39593 -14.28571,-14.28571 0,-7.88979 6.39593,-14.28572 14.28571,-14.28572 7.88978,0 14.28572,6.39593 14.28572,14.28572 z"
           sodipodi:ry="14.285714"
           sodipodi:rx="14.285714"
           sodipodi:cy="133.79076"
           sodipodi:cx="-801.42859"
           id="path5702"
           style="fill:#ff0000;fill-opacity:1;stroke:#ffffff;stroke-linejoin:miter;stroke-opacity:1"
           sodipodi:type="arc" />
        <path
           transform="matrix(0.86797069,0,0,0.86797069,853.04511,422.92102)"
           d="m -787.14287,133.79076 c 0,7.88978 -6.39594,14.28571 -14.28572,14.28571 -7.88978,0 -14.28571,-6.39593 -14.28571,-14.28571 0,-7.88979 6.39593,-14.28572 14.28571,-14.28572 7.88978,0 14.28572,6.39593 14.28572,14.28572 z"
           sodipodi:ry="14.285714"
           sodipodi:rx="14.285714"
           sodipodi:cy="133.79076"
           sodipodi:cx="-801.42859"
           id="path5704"
           style="fill:#ff0000;fill-opacity:1;stroke:#ffffff;stroke-linejoin:miter;stroke-opacity:1"
           sodipodi:type="arc" />
        <path
           transform="matrix(0.86797069,0,0,0.86797069,882.0161,422.92102)"
           d="m -787.14287,133.79076 c 0,7.88978 -6.39594,14.28571 -14.28572,14.28571 -7.88978,0 -14.28571,-6.39593 -14.28571,-14.28571 0,-7.88979 6.39593,-14.28572 14.28571,-14.28572 7.88978,0 14.28572,6.39593 14.28572,14.28572 z"
           sodipodi:ry="14.285714"
           sodipodi:rx="14.285714"
           sodipodi:cy="133.79076"
           sodipodi:cx="-801.42859"
           id="path5706"
           style="fill:#ff0000;fill-opacity:1;stroke:#ffffff;stroke-linejoin:miter;stroke-opacity:1"
           sodipodi:type="arc" />
        <path
           transform="matrix(0.86797069,0,0,0.86797069,912.02311,422.92102)"
           d="m -787.14287,133.79076 c 0,7.88978 -6.39594,14.28571 -14.28572,14.28571 -7.88978,0 -14.28571,-6.39593 -14.28571,-14.28571 0,-7.88979 6.39593,-14.28572 14.28571,-14.28572 7.88978,0 14.28572,6.39593 14.28572,14.28572 z"
           sodipodi:ry="14.285714"
           sodipodi:rx="14.285714"
           sodipodi:cy="133.79076"
           sodipodi:cx="-801.42859"
           id="path5708"
           style="fill:#ff0000;fill-opacity:1;stroke:#ffffff;stroke-linejoin:miter;stroke-opacity:1"
           sodipodi:type="arc" />
        <path
           sodipodi:type="arc"
           style="fill:#ff0000;fill-opacity:1;stroke:#ffffff;stroke-linejoin:miter;stroke-opacity:1"
           id="path5710"
           sodipodi:cx="-801.42859"
           sodipodi:cy="133.79076"
           sodipodi:rx="14.285714"
           sodipodi:ry="14.285714"
           d="m -787.14287,133.79076 c 0,7.88978 -6.39594,14.28571 -14.28572,14.28571 -7.88978,0 -14.28571,-6.39593 -14.28571,-14.28571 0,-7.88979 6.39593,-14.28572 14.28571,-14.28572 7.88978,0 14.28572,6.39593 14.28572,14.28572 z"
           transform="matrix(0.86797069,0,0,0.86797069,941.03811,422.92102)" />
        <path
           sodipodi:type="arc"
           style="fill:#ff0000;fill-opacity:1;stroke:#ffffff;stroke-linejoin:miter;stroke-opacity:1"
           id="path5712"
           sodipodi:cx="-801.42859"
           sodipodi:cy="133.79076"
           sodipodi:rx="14.285714"
           sodipodi:ry="14.285714"
           d="m -787.14287,133.79076 c 0,7.88978 -6.39594,14.28571 -14.28572,14.28571 -7.88978,0 -14.28571,-6.39593 -14.28571,-14.28571 0,-7.88979 6.39593,-14.28572 14.28571,-14.28572 7.88978,0 14.28572,6.39593 14.28572,14.28572 z"
           transform="matrix(0.86797069,0,0,0.86797069,971.04511,422.92102)" />
        <path
           sodipodi:type="arc"
           style="fill:#ff0000;fill-opacity:1;stroke:#ffffff;stroke-linejoin:miter;stroke-opacity:1"
           id="path5714"
           sodipodi:cx="-801.42859"
           sodipodi:cy="133.79076"
           sodipodi:rx="14.285714"
           sodipodi:ry="14.285714"
           d="m -787.14287,133.79076 c 0,7.88978 -6.39594,14.28571 -14.28572,14.28571 -7.88978,0 -14.28571,-6.39593 -14.28571,-14.28571 0,-7.88979 6.39593,-14.28572 14.28571,-14.28572 7.88978,0 14.28572,6.39593 14.28572,14.28572 z"
           transform="matrix(0.86797069,0,0,0.86797069,764.0161,452.92102)" />
        <path
           sodipodi:type="arc"
           style="fill:#ff0000;fill-opacity:1;stroke:#ffffff;stroke-linejoin:miter;stroke-opacity:1"
           id="path5716"
           sodipodi:cx="-801.42859"
           sodipodi:cy="133.79076"
           sodipodi:rx="14.285714"
           sodipodi:ry="14.285714"
           d="m -787.14287,133.79076 c 0,7.88978 -6.39594,14.28571 -14.28572,14.28571 -7.88978,0 -14.28571,-6.39593 -14.28571,-14.28571 0,-7.88979 6.39593,-14.28572 14.28571,-14.28572 7.88978,0 14.28572,6.39593 14.28572,14.28572 z"
           transform="matrix(0.86797069,0,0,0.86797069,794.02311,452.92102)" />
        <path
           transform="matrix(0.86797069,0,0,0.86797069,823.03811,452.92102)"
           d="m -787.14287,133.79076 c 0,7.88978 -6.39594,14.28571 -14.28572,14.28571 -7.88978,0 -14.28571,-6.39593 -14.28571,-14.28571 0,-7.88979 6.39593,-14.28572 14.28571,-14.28572 7.88978,0 14.28572,6.39593 14.28572,14.28572 z"
           sodipodi:ry="14.285714"
           sodipodi:rx="14.285714"
           sodipodi:cy="133.79076"
           sodipodi:cx="-801.42859"
           id="path5718"
           style="fill:#ff0000;fill-opacity:1;stroke:#ffffff;stroke-linejoin:miter;stroke-opacity:1"
           sodipodi:type="arc" />
        <path
           transform="matrix(0.86797069,0,0,0.86797069,853.04511,452.92102)"
           d="m -787.14287,133.79076 c 0,7.88978 -6.39594,14.28571 -14.28572,14.28571 -7.88978,0 -14.28571,-6.39593 -14.28571,-14.28571 0,-7.88979 6.39593,-14.28572 14.28571,-14.28572 7.88978,0 14.28572,6.39593 14.28572,14.28572 z"
           sodipodi:ry="14.285714"
           sodipodi:rx="14.285714"
           sodipodi:cy="133.79076"
           sodipodi:cx="-801.42859"
           id="path5720"
           style="fill:#ff0000;fill-opacity:1;stroke:#ffffff;stroke-linejoin:miter;stroke-opacity:1"
           sodipodi:type="arc" />
        <path
           transform="matrix(0.86797069,0,0,0.86797069,882.0161,452.92102)"
           d="m -787.14287,133.79076 c 0,7.88978 -6.39594,14.28571 -14.28572,14.28571 -7.88978,0 -14.28571,-6.39593 -14.28571,-14.28571 0,-7.88979 6.39593,-14.28572 14.28571,-14.28572 7.88978,0 14.28572,6.39593 14.28572,14.28572 z"
           sodipodi:ry="14.285714"
           sodipodi:rx="14.285714"
           sodipodi:cy="133.79076"
           sodipodi:cx="-801.42859"
           id="path5722"
           style="fill:#ff0000;fill-opacity:1;stroke:#ffffff;stroke-linejoin:miter;stroke-opacity:1"
           sodipodi:type="arc" />
        <path
           transform="matrix(0.86797069,0,0,0.86797069,912.02311,452.92102)"
           d="m -787.14287,133.79076 c 0,7.88978 -6.39594,14.28571 -14.28572,14.28571 -7.88978,0 -14.28571,-6.39593 -14.28571,-14.28571 0,-7.88979 6.39593,-14.28572 14.28571,-14.28572 7.88978,0 14.28572,6.39593 14.28572,14.28572 z"
           sodipodi:ry="14.285714"
           sodipodi:rx="14.285714"
           sodipodi:cy="133.79076"
           sodipodi:cx="-801.42859"
           id="path5724"
           style="fill:#ff0000;fill-opacity:1;stroke:#ffffff;stroke-linejoin:miter;stroke-opacity:1"
           sodipodi:type="arc" />
        <path
           sodipodi:type="arc"
           style="fill:#ff0000;fill-opacity:1;stroke:#ffffff;stroke-linejoin:miter;stroke-opacity:1"
           id="path5726"
           sodipodi:cx="-801.42859"
           sodipodi:cy="133.79076"
           sodipodi:rx="14.285714"
           sodipodi:ry="14.285714"
           d="m -787.14287,133.79076 c 0,7.88978 -6.39594,14.28571 -14.28572,14.28571 -7.88978,0 -14.28571,-6.39593 -14.28571,-14.28571 0,-7.88979 6.39593,-14.28572 14.28571,-14.28572 7.88978,0 14.28572,6.39593 14.28572,14.28572 z"
           transform="matrix(0.86797069,0,0,0.86797069,941.03811,452.92102)" />
        <path
           sodipodi:type="arc"
           style="fill:#ff0000;fill-opacity:1;stroke:#ffffff;stroke-linejoin:miter;stroke-opacity:1"
           id="path5728"
           sodipodi:cx="-801.42859"
           sodipodi:cy="133.79076"
           sodipodi:rx="14.285714"
           sodipodi:ry="14.285714"
           d="m -787.14287,133.79076 c 0,7.88978 -6.39594,14.28571 -14.28572,14.28571 -7.88978,0 -14.28571,-6.39593 -14.28571,-14.28571 0,-7.88979 6.39593,-14.28572 14.28571,-14.28572 7.88978,0 14.28572,6.39593 14.28572,14.28572 z"
           transform="matrix(0.86797069,0,0,0.86797069,971.04511,452.92102)" />
        <path
           transform="matrix(0.86797069,0,0,0.86797069,764.0161,482.92102)"
           d="m -787.14287,133.79076 c 0,7.88978 -6.39594,14.28571 -14.28572,14.28571 -7.88978,0 -14.28571,-6.39593 -14.28571,-14.28571 0,-7.88979 6.39593,-14.28572 14.28571,-14.28572 7.88978,0 14.28572,6.39593 14.28572,14.28572 z"
           sodipodi:ry="14.285714"
           sodipodi:rx="14.285714"
           sodipodi:cy="133.79076"
           sodipodi:cx="-801.42859"
           id="path5730"
           style="fill:#ff0000;fill-opacity:1;stroke:#ffffff;stroke-linejoin:miter;stroke-opacity:1"
           sodipodi:type="arc" />
        <path
           transform="matrix(0.86797069,0,0,0.86797069,794.02311,482.92102)"
           d="m -787.14287,133.79076 c 0,7.88978 -6.39594,14.28571 -14.28572,14.28571 -7.88978,0 -14.28571,-6.39593 -14.28571,-14.28571 0,-7.88979 6.39593,-14.28572 14.28571,-14.28572 7.88978,0 14.28572,6.39593 14.28572,14.28572 z"
           sodipodi:ry="14.285714"
           sodipodi:rx="14.285714"
           sodipodi:cy="133.79076"
           sodipodi:cx="-801.42859"
           id="path5732"
           style="fill:#ff0000;fill-opacity:1;stroke:#ffffff;stroke-linejoin:miter;stroke-opacity:1"
           sodipodi:type="arc" />
        <path
           sodipodi:type="arc"
           style="fill:#ff0000;fill-opacity:1;stroke:#ffffff;stroke-linejoin:miter;stroke-opacity:1"
           id="path5734"
           sodipodi:cx="-801.42859"
           sodipodi:cy="133.79076"
           sodipodi:rx="14.285714"
           sodipodi:ry="14.285714"
           d="m -787.14287,133.79076 c 0,7.88978 -6.39594,14.28571 -14.28572,14.28571 -7.88978,0 -14.28571,-6.39593 -14.28571,-14.28571 0,-7.88979 6.39593,-14.28572 14.28571,-14.28572 7.88978,0 14.28572,6.39593 14.28572,14.28572 z"
           transform="matrix(0.86797069,0,0,0.86797069,823.03811,482.92102)" />
        <path
           sodipodi:type="arc"
           style="fill:#ff0000;fill-opacity:1;stroke:#ffffff;stroke-linejoin:miter;stroke-opacity:1"
           id="path5736"
           sodipodi:cx="-801.42859"
           sodipodi:cy="133.79076"
           sodipodi:rx="14.285714"
           sodipodi:ry="14.285714"
           d="m -787.14287,133.79076 c 0,7.88978 -6.39594,14.28571 -14.28572,14.28571 -7.88978,0 -14.28571,-6.39593 -14.28571,-14.28571 0,-7.88979 6.39593,-14.28572 14.28571,-14.28572 7.88978,0 14.28572,6.39593 14.28572,14.28572 z"
           transform="matrix(0.86797069,0,0,0.86797069,853.04511,482.92102)" />
        <path
           sodipodi:type="arc"
           style="fill:#ff0000;fill-opacity:1;stroke:#ffffff;stroke-linejoin:miter;stroke-opacity:1"
           id="path5738"
           sodipodi:cx="-801.42859"
           sodipodi:cy="133.79076"
           sodipodi:rx="14.285714"
           sodipodi:ry="14.285714"
           d="m -787.14287,133.79076 c 0,7.88978 -6.39594,14.28571 -14.28572,14.28571 -7.88978,0 -14.28571,-6.39593 -14.28571,-14.28571 0,-7.88979 6.39593,-14.28572 14.28571,-14.28572 7.88978,0 14.28572,6.39593 14.28572,14.28572 z"
           transform="matrix(0.86797069,0,0,0.86797069,882.0161,482.92102)" />
        <path
           sodipodi:type="arc"
           style="fill:#ff0000;fill-opacity:1;stroke:#ffffff;stroke-linejoin:miter;stroke-opacity:1"
           id="path5740"
           sodipodi:cx="-801.42859"
           sodipodi:cy="133.79076"
           sodipodi:rx="14.285714"
           sodipodi:ry="14.285714"
           d="m -787.14287,133.79076 c 0,7.88978 -6.39594,14.28571 -14.28572,14.28571 -7.88978,0 -14.28571,-6.39593 -14.28571,-14.28571 0,-7.88979 6.39593,-14.28572 14.28571,-14.28572 7.88978,0 14.28572,6.39593 14.28572,14.28572 z"
           transform="matrix(0.86797069,0,0,0.86797069,912.02311,482.92102)" />
        <path
           transform="matrix(0.86797069,0,0,0.86797069,941.03811,482.92102)"
           d="m -787.14287,133.79076 c 0,7.88978 -6.39594,14.28571 -14.28572,14.28571 -7.88978,0 -14.28571,-6.39593 -14.28571,-14.28571 0,-7.88979 6.39593,-14.28572 14.28571,-14.28572 7.88978,0 14.28572,6.39593 14.28572,14.28572 z"
           sodipodi:ry="14.285714"
           sodipodi:rx="14.285714"
           sodipodi:cy="133.79076"
           sodipodi:cx="-801.42859"
           id="path5742"
           style="fill:#ff0000;fill-opacity:1;stroke:#ffffff;stroke-linejoin:miter;stroke-opacity:1"
           sodipodi:type="arc" />
        <path
           transform="matrix(0.86797069,0,0,0.86797069,971.04511,482.92102)"
           d="m -787.14287,133.79076 c 0,7.88978 -6.39594,14.28571 -14.28572,14.28571 -7.88978,0 -14.28571,-6.39593 -14.28571,-14.28571 0,-7.88979 6.39593,-14.28572 14.28571,-14.28572 7.88978,0 14.28572,6.39593 14.28572,14.28572 z"
           sodipodi:ry="14.285714"
           sodipodi:rx="14.285714"
           sodipodi:cy="133.79076"
           sodipodi:cx="-801.42859"
           id="path5744"
           style="fill:#ff0000;fill-opacity:1;stroke:#ffffff;stroke-linejoin:miter;stroke-opacity:1"
           sodipodi:type="arc" />
      </g>
    </g>
    <g
       id="g6076"
       transform="matrix(0.51827814,-0.22747091,0.47167677,0.14858222,99.862061,311.55675)">
      <g
         transform="translate(116,-274)"
         id="g5946">
        <g
           id="g6213"
           transform="matrix(0.74362465,0.14214017,-0.05472173,0.93311239,-903.64374,1236.3788)">
          <g
             id="g6280"
             transform="matrix(1.0166199,-0.01826198,0.01512555,0.98338006,-18.174908,-72.119096)">
            <rect
               transform="matrix(0.99939293,-0.03483912,-0.02090573,0.99978145,0,0)"
               style="fill:#afafde;fill-opacity:1;stroke:#000000;stroke-width:1.03282464;stroke-linejoin:miter;stroke-opacity:1"
               id="rect5944"
               width="252.00854"
               height="249.65466"
               x="62.527344"
               y="367.20392" />
            <path
               transform="matrix(0.90013096,-0.03137882,-0.01865345,0.89206999,797.42181,236.93005)"
               d="m -787.14287,133.79076 c 0,7.88978 -6.39594,14.28571 -14.28572,14.28571 -7.88978,0 -14.28571,-6.39593 -14.28571,-14.28571 0,-7.88979 6.39593,-14.28572 14.28571,-14.28572 7.88978,0 14.28572,6.39593 14.28572,14.28572 z"
               sodipodi:ry="14.285714"
               sodipodi:rx="14.285714"
               sodipodi:cy="133.79076"
               sodipodi:cx="-801.42859"
               id="path5948"
               style="fill:#ff0000;fill-opacity:1;stroke:#ffffff;stroke-linejoin:miter;stroke-opacity:1"
               sodipodi:type="arc" />
            <path
               transform="matrix(0.90013096,-0.03137882,-0.01865345,0.89206999,828.54064,235.84524)"
               d="m -787.14287,133.79076 c 0,7.88978 -6.39594,14.28571 -14.28572,14.28571 -7.88978,0 -14.28571,-6.39593 -14.28571,-14.28571 0,-7.88979 6.39593,-14.28572 14.28571,-14.28572 7.88978,0 14.28572,6.39593 14.28572,14.28572 z"
               sodipodi:ry="14.285714"
               sodipodi:rx="14.285714"
               sodipodi:cy="133.79076"
               sodipodi:cx="-801.42859"
               id="path5950"
               style="fill:#ff0000;fill-opacity:1;stroke:#ffffff;stroke-linejoin:miter;stroke-opacity:1"
               sodipodi:type="arc" />
            <path
               sodipodi:type="arc"
               style="fill:#ff0000;fill-opacity:1;stroke:#ffffff;stroke-linejoin:miter;stroke-opacity:1"
               id="path5952"
               sodipodi:cx="-801.42859"
               sodipodi:cy="133.79076"
               sodipodi:rx="14.285714"
               sodipodi:ry="14.285714"
               d="m -787.14287,133.79076 c 0,7.88978 -6.39594,14.28571 -14.28572,14.28571 -7.88978,0 -14.28571,-6.39593 -14.28571,-14.28571 0,-7.88979 6.39593,-14.28572 14.28571,-14.28572 7.88978,0 14.28572,6.39593 14.28572,14.28572 z"
               transform="matrix(0.90013096,-0.03137882,-0.01865345,0.89206999,858.63071,234.79629)" />
            <path
               sodipodi:type="arc"
               style="fill:#ff0000;fill-opacity:1;stroke:#ffffff;stroke-linejoin:miter;stroke-opacity:1"
               id="path5954"
               sodipodi:cx="-801.42859"
               sodipodi:cy="133.79076"
               sodipodi:rx="14.285714"
               sodipodi:ry="14.285714"
               d="m -787.14287,133.79076 c 0,7.88978 -6.39594,14.28571 -14.28572,14.28571 -7.88978,0 -14.28571,-6.39593 -14.28571,-14.28571 0,-7.88979 6.39593,-14.28572 14.28571,-14.28572 7.88978,0 14.28572,6.39593 14.28572,14.28572 z"
               transform="matrix(0.90013096,-0.03137882,-0.01865345,0.89206999,889.74954,233.71148)" />
            <path
               sodipodi:type="arc"
               style="fill:#ff0000;fill-opacity:1;stroke:#ffffff;stroke-linejoin:miter;stroke-opacity:1"
               id="path5956"
               sodipodi:cx="-801.42859"
               sodipodi:cy="133.79076"
               sodipodi:rx="14.285714"
               sodipodi:ry="14.285714"
               d="m -787.14287,133.79076 c 0,7.88978 -6.39594,14.28571 -14.28572,14.28571 -7.88978,0 -14.28571,-6.39593 -14.28571,-14.28571 0,-7.88979 6.39593,-14.28572 14.28571,-14.28572 7.88978,0 14.28572,6.39593 14.28572,14.28572 z"
               transform="matrix(0.90013096,-0.03137882,-0.01865345,0.89206999,919.79397,232.66412)" />
            <path
               sodipodi:type="arc"
               style="fill:#ff0000;fill-opacity:1;stroke:#ffffff;stroke-linejoin:miter;stroke-opacity:1"
               id="path5958"
               sodipodi:cx="-801.42859"
               sodipodi:cy="133.79076"
               sodipodi:rx="14.285714"
               sodipodi:ry="14.285714"
               d="m -787.14287,133.79076 c 0,7.88978 -6.39594,14.28571 -14.28572,14.28571 -7.88978,0 -14.28571,-6.39593 -14.28571,-14.28571 0,-7.88979 6.39593,-14.28572 14.28571,-14.28572 7.88978,0 14.28572,6.39593 14.28572,14.28572 z"
               transform="matrix(0.90013096,-0.03137882,-0.01865345,0.89206999,950.91281,231.57931)" />
            <path
               transform="matrix(0.90013096,-0.03137882,-0.01865345,0.89206999,981.00288,230.53036)"
               d="m -787.14287,133.79076 c 0,7.88978 -6.39594,14.28571 -14.28572,14.28571 -7.88978,0 -14.28571,-6.39593 -14.28571,-14.28571 0,-7.88979 6.39593,-14.28572 14.28571,-14.28572 7.88978,0 14.28572,6.39593 14.28572,14.28572 z"
               sodipodi:ry="14.285714"
               sodipodi:rx="14.285714"
               sodipodi:cy="133.79076"
               sodipodi:cx="-801.42859"
               id="path5960"
               style="fill:#ff0000;fill-opacity:1;stroke:#ffffff;stroke-linejoin:miter;stroke-opacity:1"
               sodipodi:type="arc" />
            <path
               transform="matrix(0.90013096,-0.03137882,-0.01865345,0.89206999,1012.1217,229.44555)"
               d="m -787.14287,133.79076 c 0,7.88978 -6.39594,14.28571 -14.28572,14.28571 -7.88978,0 -14.28571,-6.39593 -14.28571,-14.28571 0,-7.88979 6.39593,-14.28572 14.28571,-14.28572 7.88978,0 14.28572,6.39593 14.28572,14.28572 z"
               sodipodi:ry="14.285714"
               sodipodi:rx="14.285714"
               sodipodi:cy="133.79076"
               sodipodi:cx="-801.42859"
               id="path5962"
               style="fill:#ff0000;fill-opacity:1;stroke:#ffffff;stroke-linejoin:miter;stroke-opacity:1"
               sodipodi:type="arc" />
            <path
               sodipodi:type="arc"
               style="fill:#ff0000;fill-opacity:1;stroke:#ffffff;stroke-linejoin:miter;stroke-opacity:1"
               id="path5964"
               sodipodi:cx="-801.42859"
               sodipodi:cy="133.79076"
               sodipodi:rx="14.285714"
               sodipodi:ry="14.285714"
               d="m -787.14287,133.79076 c 0,7.88978 -6.39594,14.28571 -14.28572,14.28571 -7.88978,0 -14.28571,-6.39593 -14.28571,-14.28571 0,-7.88979 6.39593,-14.28572 14.28571,-14.28572 7.88978,0 14.28572,6.39593 14.28572,14.28572 z"
               transform="matrix(0.90013096,-0.03137882,-0.01865345,0.89206999,796.77708,267.763)" />
            <path
               sodipodi:type="arc"
               style="fill:#ff0000;fill-opacity:1;stroke:#ffffff;stroke-linejoin:miter;stroke-opacity:1"
               id="path5966"
               sodipodi:cx="-801.42859"
               sodipodi:cy="133.79076"
               sodipodi:rx="14.285714"
               sodipodi:ry="14.285714"
               d="m -787.14287,133.79076 c 0,7.88978 -6.39594,14.28571 -14.28572,14.28571 -7.88978,0 -14.28571,-6.39593 -14.28571,-14.28571 0,-7.88979 6.39593,-14.28572 14.28571,-14.28572 7.88978,0 14.28572,6.39593 14.28572,14.28572 z"
               transform="matrix(0.90013096,-0.03137882,-0.01865345,0.89206999,827.89592,266.67819)" />
            <path
               transform="matrix(0.90013096,-0.03137882,-0.01865345,0.89206999,857.98599,265.62924)"
               d="m -787.14287,133.79076 c 0,7.88978 -6.39594,14.28571 -14.28572,14.28571 -7.88978,0 -14.28571,-6.39593 -14.28571,-14.28571 0,-7.88979 6.39593,-14.28572 14.28571,-14.28572 7.88978,0 14.28572,6.39593 14.28572,14.28572 z"
               sodipodi:ry="14.285714"
               sodipodi:rx="14.285714"
               sodipodi:cy="133.79076"
               sodipodi:cx="-801.42859"
               id="path5968"
               style="fill:#ff0000;fill-opacity:1;stroke:#ffffff;stroke-linejoin:miter;stroke-opacity:1"
               sodipodi:type="arc" />
            <path
               transform="matrix(0.90013096,-0.03137882,-0.01865345,0.89206999,889.10481,264.54443)"
               d="m -787.14287,133.79076 c 0,7.88978 -6.39594,14.28571 -14.28572,14.28571 -7.88978,0 -14.28571,-6.39593 -14.28571,-14.28571 0,-7.88979 6.39593,-14.28572 14.28571,-14.28572 7.88978,0 14.28572,6.39593 14.28572,14.28572 z"
               sodipodi:ry="14.285714"
               sodipodi:rx="14.285714"
               sodipodi:cy="133.79076"
               sodipodi:cx="-801.42859"
               id="path5970"
               style="fill:#ff0000;fill-opacity:1;stroke:#ffffff;stroke-linejoin:miter;stroke-opacity:1"
               sodipodi:type="arc" />
            <path
               transform="matrix(0.90013096,-0.03137882,-0.01865345,0.89206999,919.14924,263.49707)"
               d="m -787.14287,133.79076 c 0,7.88978 -6.39594,14.28571 -14.28572,14.28571 -7.88978,0 -14.28571,-6.39593 -14.28571,-14.28571 0,-7.88979 6.39593,-14.28572 14.28571,-14.28572 7.88978,0 14.28572,6.39593 14.28572,14.28572 z"
               sodipodi:ry="14.285714"
               sodipodi:rx="14.285714"
               sodipodi:cy="133.79076"
               sodipodi:cx="-801.42859"
               id="path5972"
               style="fill:#ff0000;fill-opacity:1;stroke:#ffffff;stroke-linejoin:miter;stroke-opacity:1"
               sodipodi:type="arc" />
            <path
               transform="matrix(0.90013096,-0.03137882,-0.01865345,0.89206999,950.26808,262.41226)"
               d="m -787.14287,133.79076 c 0,7.88978 -6.39594,14.28571 -14.28572,14.28571 -7.88978,0 -14.28571,-6.39593 -14.28571,-14.28571 0,-7.88979 6.39593,-14.28572 14.28571,-14.28572 7.88978,0 14.28572,6.39593 14.28572,14.28572 z"
               sodipodi:ry="14.285714"
               sodipodi:rx="14.285714"
               sodipodi:cy="133.79076"
               sodipodi:cx="-801.42859"
               id="path5974"
               style="fill:#ff0000;fill-opacity:1;stroke:#ffffff;stroke-linejoin:miter;stroke-opacity:1"
               sodipodi:type="arc" />
            <path
               sodipodi:type="arc"
               style="fill:#ff0000;fill-opacity:1;stroke:#ffffff;stroke-linejoin:miter;stroke-opacity:1"
               id="path5976"
               sodipodi:cx="-801.42859"
               sodipodi:cy="133.79076"
               sodipodi:rx="14.285714"
               sodipodi:ry="14.285714"
               d="m -787.14287,133.79076 c 0,7.88978 -6.39594,14.28571 -14.28572,14.28571 -7.88978,0 -14.28571,-6.39593 -14.28571,-14.28571 0,-7.88979 6.39593,-14.28572 14.28571,-14.28572 7.88978,0 14.28572,6.39593 14.28572,14.28572 z"
               transform="matrix(0.90013096,-0.03137882,-0.01865345,0.89206999,980.35815,261.36331)" />
            <path
               sodipodi:type="arc"
               style="fill:#ff0000;fill-opacity:1;stroke:#ffffff;stroke-linejoin:miter;stroke-opacity:1"
               id="path5978"
               sodipodi:cx="-801.42859"
               sodipodi:cy="133.79076"
               sodipodi:rx="14.285714"
               sodipodi:ry="14.285714"
               d="m -787.14287,133.79076 c 0,7.88978 -6.39594,14.28571 -14.28572,14.28571 -7.88978,0 -14.28571,-6.39593 -14.28571,-14.28571 0,-7.88979 6.39593,-14.28572 14.28571,-14.28572 7.88978,0 14.28572,6.39593 14.28572,14.28572 z"
               transform="matrix(0.90013096,-0.03137882,-0.01865345,0.89206999,1011.477,260.2785)" />
            <path
               sodipodi:type="arc"
               style="fill:#ff0000;fill-opacity:1;stroke:#ffffff;stroke-linejoin:miter;stroke-opacity:1"
               id="path5980"
               sodipodi:cx="-801.42859"
               sodipodi:cy="133.79076"
               sodipodi:rx="14.285714"
               sodipodi:ry="14.285714"
               d="m -787.14287,133.79076 c 0,7.88978 -6.39594,14.28571 -14.28572,14.28571 -7.88978,0 -14.28571,-6.39593 -14.28571,-14.28571 0,-7.88979 6.39593,-14.28572 14.28571,-14.28572 7.88978,0 14.28572,6.39593 14.28572,14.28572 z"
               transform="matrix(0.90013096,-0.03137882,-0.01865345,0.89206999,796.13235,298.59596)" />
            <path
               sodipodi:type="arc"
               style="fill:#ff0000;fill-opacity:1;stroke:#ffffff;stroke-linejoin:miter;stroke-opacity:1"
               id="path5982"
               sodipodi:cx="-801.42859"
               sodipodi:cy="133.79076"
               sodipodi:rx="14.285714"
               sodipodi:ry="14.285714"
               d="m -787.14287,133.79076 c 0,7.88978 -6.39594,14.28571 -14.28572,14.28571 -7.88978,0 -14.28571,-6.39593 -14.28571,-14.28571 0,-7.88979 6.39593,-14.28572 14.28571,-14.28572 7.88978,0 14.28572,6.39593 14.28572,14.28572 z"
               transform="matrix(0.90013096,-0.03137882,-0.01865345,0.89206999,827.25119,297.51114)" />
            <path
               transform="matrix(0.90013096,-0.03137882,-0.01865345,0.89206999,857.34126,296.4622)"
               d="m -787.14287,133.79076 c 0,7.88978 -6.39594,14.28571 -14.28572,14.28571 -7.88978,0 -14.28571,-6.39593 -14.28571,-14.28571 0,-7.88979 6.39593,-14.28572 14.28571,-14.28572 7.88978,0 14.28572,6.39593 14.28572,14.28572 z"
               sodipodi:ry="14.285714"
               sodipodi:rx="14.285714"
               sodipodi:cy="133.79076"
               sodipodi:cx="-801.42859"
               id="path5984"
               style="fill:#ff0000;fill-opacity:1;stroke:#ffffff;stroke-linejoin:miter;stroke-opacity:1"
               sodipodi:type="arc" />
            <path
               transform="matrix(0.90013096,-0.03137882,-0.01865345,0.89206999,888.46009,295.37739)"
               d="m -787.14287,133.79076 c 0,7.88978 -6.39594,14.28571 -14.28572,14.28571 -7.88978,0 -14.28571,-6.39593 -14.28571,-14.28571 0,-7.88979 6.39593,-14.28572 14.28571,-14.28572 7.88978,0 14.28572,6.39593 14.28572,14.28572 z"
               sodipodi:ry="14.285714"
               sodipodi:rx="14.285714"
               sodipodi:cy="133.79076"
               sodipodi:cx="-801.42859"
               id="path5986"
               style="fill:#ff0000;fill-opacity:1;stroke:#ffffff;stroke-linejoin:miter;stroke-opacity:1"
               sodipodi:type="arc" />
            <path
               transform="matrix(0.90013096,-0.03137882,-0.01865345,0.89206999,918.50452,294.33003)"
               d="m -787.14287,133.79076 c 0,7.88978 -6.39594,14.28571 -14.28572,14.28571 -7.88978,0 -14.28571,-6.39593 -14.28571,-14.28571 0,-7.88979 6.39593,-14.28572 14.28571,-14.28572 7.88978,0 14.28572,6.39593 14.28572,14.28572 z"
               sodipodi:ry="14.285714"
               sodipodi:rx="14.285714"
               sodipodi:cy="133.79076"
               sodipodi:cx="-801.42859"
               id="path5988"
               style="fill:#ff0000;fill-opacity:1;stroke:#ffffff;stroke-linejoin:miter;stroke-opacity:1"
               sodipodi:type="arc" />
            <path
               transform="matrix(0.90013096,-0.03137882,-0.01865345,0.89206999,949.62336,293.24522)"
               d="m -787.14287,133.79076 c 0,7.88978 -6.39594,14.28571 -14.28572,14.28571 -7.88978,0 -14.28571,-6.39593 -14.28571,-14.28571 0,-7.88979 6.39593,-14.28572 14.28571,-14.28572 7.88978,0 14.28572,6.39593 14.28572,14.28572 z"
               sodipodi:ry="14.285714"
               sodipodi:rx="14.285714"
               sodipodi:cy="133.79076"
               sodipodi:cx="-801.42859"
               id="path5990"
               style="fill:#ff0000;fill-opacity:1;stroke:#ffffff;stroke-linejoin:miter;stroke-opacity:1"
               sodipodi:type="arc" />
            <path
               sodipodi:type="arc"
               style="fill:#ff0000;fill-opacity:1;stroke:#ffffff;stroke-linejoin:miter;stroke-opacity:1"
               id="path5992"
               sodipodi:cx="-801.42859"
               sodipodi:cy="133.79076"
               sodipodi:rx="14.285714"
               sodipodi:ry="14.285714"
               d="m -787.14287,133.79076 c 0,7.88978 -6.39594,14.28571 -14.28572,14.28571 -7.88978,0 -14.28571,-6.39593 -14.28571,-14.28571 0,-7.88979 6.39593,-14.28572 14.28571,-14.28572 7.88978,0 14.28572,6.39593 14.28572,14.28572 z"
               transform="matrix(0.90013096,-0.03137882,-0.01865345,0.89206999,979.71343,292.19627)" />
            <path
               sodipodi:type="arc"
               style="fill:#ff0000;fill-opacity:1;stroke:#ffffff;stroke-linejoin:miter;stroke-opacity:1"
               id="path5994"
               sodipodi:cx="-801.42859"
               sodipodi:cy="133.79076"
               sodipodi:rx="14.285714"
               sodipodi:ry="14.285714"
               d="m -787.14287,133.79076 c 0,7.88978 -6.39594,14.28571 -14.28572,14.28571 -7.88978,0 -14.28571,-6.39593 -14.28571,-14.28571 0,-7.88979 6.39593,-14.28572 14.28571,-14.28572 7.88978,0 14.28572,6.39593 14.28572,14.28572 z"
               transform="matrix(0.90013096,-0.03137882,-0.01865345,0.89206999,1010.8323,291.11146)" />
            <path
               transform="matrix(0.90013096,-0.03137882,-0.01865345,0.89206999,795.48763,329.42891)"
               d="m -787.14287,133.79076 c 0,7.88978 -6.39594,14.28571 -14.28572,14.28571 -7.88978,0 -14.28571,-6.39593 -14.28571,-14.28571 0,-7.88979 6.39593,-14.28572 14.28571,-14.28572 7.88978,0 14.28572,6.39593 14.28572,14.28572 z"
               sodipodi:ry="14.285714"
               sodipodi:rx="14.285714"
               sodipodi:cy="133.79076"
               sodipodi:cx="-801.42859"
               id="path5996"
               style="fill:#ff0000;fill-opacity:1;stroke:#ffffff;stroke-linejoin:miter;stroke-opacity:1"
               sodipodi:type="arc" />
            <path
               transform="matrix(0.90013096,-0.03137882,-0.01865345,0.89206999,826.60646,328.3441)"
               d="m -787.14287,133.79076 c 0,7.88978 -6.39594,14.28571 -14.28572,14.28571 -7.88978,0 -14.28571,-6.39593 -14.28571,-14.28571 0,-7.88979 6.39593,-14.28572 14.28571,-14.28572 7.88978,0 14.28572,6.39593 14.28572,14.28572 z"
               sodipodi:ry="14.285714"
               sodipodi:rx="14.285714"
               sodipodi:cy="133.79076"
               sodipodi:cx="-801.42859"
               id="path5998"
               style="fill:#ff0000;fill-opacity:1;stroke:#ffffff;stroke-linejoin:miter;stroke-opacity:1"
               sodipodi:type="arc" />
            <path
               sodipodi:type="arc"
               style="fill:#ff0000;fill-opacity:1;stroke:#ffffff;stroke-linejoin:miter;stroke-opacity:1"
               id="path6000"
               sodipodi:cx="-801.42859"
               sodipodi:cy="133.79076"
               sodipodi:rx="14.285714"
               sodipodi:ry="14.285714"
               d="m -787.14287,133.79076 c 0,7.88978 -6.39594,14.28571 -14.28572,14.28571 -7.88978,0 -14.28571,-6.39593 -14.28571,-14.28571 0,-7.88979 6.39593,-14.28572 14.28571,-14.28572 7.88978,0 14.28572,6.39593 14.28572,14.28572 z"
               transform="matrix(0.90013096,-0.03137882,-0.01865345,0.89206999,856.69653,327.29515)" />
            <path
               sodipodi:type="arc"
               style="fill:#ff0000;fill-opacity:1;stroke:#ffffff;stroke-linejoin:miter;stroke-opacity:1"
               id="path6002"
               sodipodi:cx="-801.42859"
               sodipodi:cy="133.79076"
               sodipodi:rx="14.285714"
               sodipodi:ry="14.285714"
               d="m -787.14287,133.79076 c 0,7.88978 -6.39594,14.28571 -14.28572,14.28571 -7.88978,0 -14.28571,-6.39593 -14.28571,-14.28571 0,-7.88979 6.39593,-14.28572 14.28571,-14.28572 7.88978,0 14.28572,6.39593 14.28572,14.28572 z"
               transform="matrix(0.90013096,-0.03137882,-0.01865345,0.89206999,887.81536,326.21034)" />
            <path
               sodipodi:type="arc"
               style="fill:#ff0000;fill-opacity:1;stroke:#ffffff;stroke-linejoin:miter;stroke-opacity:1"
               id="path6004"
               sodipodi:cx="-801.42859"
               sodipodi:cy="133.79076"
               sodipodi:rx="14.285714"
               sodipodi:ry="14.285714"
               d="m -787.14287,133.79076 c 0,7.88978 -6.39594,14.28571 -14.28572,14.28571 -7.88978,0 -14.28571,-6.39593 -14.28571,-14.28571 0,-7.88979 6.39593,-14.28572 14.28571,-14.28572 7.88978,0 14.28572,6.39593 14.28572,14.28572 z"
               transform="matrix(0.90013096,-0.03137882,-0.01865345,0.89206999,917.85979,325.16298)" />
            <path
               sodipodi:type="arc"
               style="fill:#ff0000;fill-opacity:1;stroke:#ffffff;stroke-linejoin:miter;stroke-opacity:1"
               id="path6006"
               sodipodi:cx="-801.42859"
               sodipodi:cy="133.79076"
               sodipodi:rx="14.285714"
               sodipodi:ry="14.285714"
               d="m -787.14287,133.79076 c 0,7.88978 -6.39594,14.28571 -14.28572,14.28571 -7.88978,0 -14.28571,-6.39593 -14.28571,-14.28571 0,-7.88979 6.39593,-14.28572 14.28571,-14.28572 7.88978,0 14.28572,6.39593 14.28572,14.28572 z"
               transform="matrix(0.90013096,-0.03137882,-0.01865345,0.89206999,948.97863,324.07817)" />
            <path
               transform="matrix(0.90013096,-0.03137882,-0.01865345,0.89206999,979.0687,323.02922)"
               d="m -787.14287,133.79076 c 0,7.88978 -6.39594,14.28571 -14.28572,14.28571 -7.88978,0 -14.28571,-6.39593 -14.28571,-14.28571 0,-7.88979 6.39593,-14.28572 14.28571,-14.28572 7.88978,0 14.28572,6.39593 14.28572,14.28572 z"
               sodipodi:ry="14.285714"
               sodipodi:rx="14.285714"
               sodipodi:cy="133.79076"
               sodipodi:cx="-801.42859"
               id="path6008"
               style="fill:#ff0000;fill-opacity:1;stroke:#ffffff;stroke-linejoin:miter;stroke-opacity:1"
               sodipodi:type="arc" />
            <path
               transform="matrix(0.90013096,-0.03137882,-0.01865345,0.89206999,1010.1875,321.94441)"
               d="m -787.14287,133.79076 c 0,7.88978 -6.39594,14.28571 -14.28572,14.28571 -7.88978,0 -14.28571,-6.39593 -14.28571,-14.28571 0,-7.88979 6.39593,-14.28572 14.28571,-14.28572 7.88978,0 14.28572,6.39593 14.28572,14.28572 z"
               sodipodi:ry="14.285714"
               sodipodi:rx="14.285714"
               sodipodi:cy="133.79076"
               sodipodi:cx="-801.42859"
               id="path6010"
               style="fill:#ff0000;fill-opacity:1;stroke:#ffffff;stroke-linejoin:miter;stroke-opacity:1"
               sodipodi:type="arc" />
            <path
               sodipodi:type="arc"
               style="fill:#ff0000;fill-opacity:1;stroke:#ffffff;stroke-linejoin:miter;stroke-opacity:1"
               id="path6012"
               sodipodi:cx="-801.42859"
               sodipodi:cy="133.79076"
               sodipodi:rx="14.285714"
               sodipodi:ry="14.285714"
               d="m -787.14287,133.79076 c 0,7.88978 -6.39594,14.28571 -14.28572,14.28571 -7.88978,0 -14.28571,-6.39593 -14.28571,-14.28571 0,-7.88979 6.39593,-14.28572 14.28571,-14.28572 7.88978,0 14.28572,6.39593 14.28572,14.28572 z"
               transform="matrix(0.90013096,-0.03137882,-0.01865345,0.89206999,794.8429,360.26186)" />
            <path
               sodipodi:type="arc"
               style="fill:#ff0000;fill-opacity:1;stroke:#ffffff;stroke-linejoin:miter;stroke-opacity:1"
               id="path6014"
               sodipodi:cx="-801.42859"
               sodipodi:cy="133.79076"
               sodipodi:rx="14.285714"
               sodipodi:ry="14.285714"
               d="m -787.14287,133.79076 c 0,7.88978 -6.39594,14.28571 -14.28572,14.28571 -7.88978,0 -14.28571,-6.39593 -14.28571,-14.28571 0,-7.88979 6.39593,-14.28572 14.28571,-14.28572 7.88978,0 14.28572,6.39593 14.28572,14.28572 z"
               transform="matrix(0.90013096,-0.03137882,-0.01865345,0.89206999,825.96174,359.17705)" />
            <path
               transform="matrix(0.90013096,-0.03137882,-0.01865345,0.89206999,856.05181,358.1281)"
               d="m -787.14287,133.79076 c 0,7.88978 -6.39594,14.28571 -14.28572,14.28571 -7.88978,0 -14.28571,-6.39593 -14.28571,-14.28571 0,-7.88979 6.39593,-14.28572 14.28571,-14.28572 7.88978,0 14.28572,6.39593 14.28572,14.28572 z"
               sodipodi:ry="14.285714"
               sodipodi:rx="14.285714"
               sodipodi:cy="133.79076"
               sodipodi:cx="-801.42859"
               id="path6016"
               style="fill:#ff0000;fill-opacity:1;stroke:#ffffff;stroke-linejoin:miter;stroke-opacity:1"
               sodipodi:type="arc" />
            <path
               transform="matrix(0.90013096,-0.03137882,-0.01865345,0.89206999,887.17064,357.04329)"
               d="m -787.14287,133.79076 c 0,7.88978 -6.39594,14.28571 -14.28572,14.28571 -7.88978,0 -14.28571,-6.39593 -14.28571,-14.28571 0,-7.88979 6.39593,-14.28572 14.28571,-14.28572 7.88978,0 14.28572,6.39593 14.28572,14.28572 z"
               sodipodi:ry="14.285714"
               sodipodi:rx="14.285714"
               sodipodi:cy="133.79076"
               sodipodi:cx="-801.42859"
               id="path6018"
               style="fill:#ff0000;fill-opacity:1;stroke:#ffffff;stroke-linejoin:miter;stroke-opacity:1"
               sodipodi:type="arc" />
            <path
               transform="matrix(0.90013096,-0.03137882,-0.01865345,0.89206999,917.21507,355.99593)"
               d="m -787.14287,133.79076 c 0,7.88978 -6.39594,14.28571 -14.28572,14.28571 -7.88978,0 -14.28571,-6.39593 -14.28571,-14.28571 0,-7.88979 6.39593,-14.28572 14.28571,-14.28572 7.88978,0 14.28572,6.39593 14.28572,14.28572 z"
               sodipodi:ry="14.285714"
               sodipodi:rx="14.285714"
               sodipodi:cy="133.79076"
               sodipodi:cx="-801.42859"
               id="path6020"
               style="fill:#ff0000;fill-opacity:1;stroke:#ffffff;stroke-linejoin:miter;stroke-opacity:1"
               sodipodi:type="arc" />
            <path
               transform="matrix(0.90013096,-0.03137882,-0.01865345,0.89206999,948.3339,354.91112)"
               d="m -787.14287,133.79076 c 0,7.88978 -6.39594,14.28571 -14.28572,14.28571 -7.88978,0 -14.28571,-6.39593 -14.28571,-14.28571 0,-7.88979 6.39593,-14.28572 14.28571,-14.28572 7.88978,0 14.28572,6.39593 14.28572,14.28572 z"
               sodipodi:ry="14.285714"
               sodipodi:rx="14.285714"
               sodipodi:cy="133.79076"
               sodipodi:cx="-801.42859"
               id="path6022"
               style="fill:#ff0000;fill-opacity:1;stroke:#ffffff;stroke-linejoin:miter;stroke-opacity:1"
               sodipodi:type="arc" />
            <path
               sodipodi:type="arc"
               style="fill:#ff0000;fill-opacity:1;stroke:#ffffff;stroke-linejoin:miter;stroke-opacity:1"
               id="path6024"
               sodipodi:cx="-801.42859"
               sodipodi:cy="133.79076"
               sodipodi:rx="14.285714"
               sodipodi:ry="14.285714"
               d="m -787.14287,133.79076 c 0,7.88978 -6.39594,14.28571 -14.28572,14.28571 -7.88978,0 -14.28571,-6.39593 -14.28571,-14.28571 0,-7.88979 6.39593,-14.28572 14.28571,-14.28572 7.88978,0 14.28572,6.39593 14.28572,14.28572 z"
               transform="matrix(0.90013096,-0.03137882,-0.01865345,0.89206999,978.42397,353.86217)" />
            <path
               sodipodi:type="arc"
               style="fill:#ff0000;fill-opacity:1;stroke:#ffffff;stroke-linejoin:miter;stroke-opacity:1"
               id="path6026"
               sodipodi:cx="-801.42859"
               sodipodi:cy="133.79076"
               sodipodi:rx="14.285714"
               sodipodi:ry="14.285714"
               d="m -787.14287,133.79076 c 0,7.88978 -6.39594,14.28571 -14.28572,14.28571 -7.88978,0 -14.28571,-6.39593 -14.28571,-14.28571 0,-7.88979 6.39593,-14.28572 14.28571,-14.28572 7.88978,0 14.28572,6.39593 14.28572,14.28572 z"
               transform="matrix(0.90013096,-0.03137882,-0.01865345,0.89206999,1009.5428,352.77736)" />
            <path
               transform="matrix(0.90013096,-0.03137882,-0.01865345,0.89206999,794.19817,391.09482)"
               d="m -787.14287,133.79076 c 0,7.88978 -6.39594,14.28571 -14.28572,14.28571 -7.88978,0 -14.28571,-6.39593 -14.28571,-14.28571 0,-7.88979 6.39593,-14.28572 14.28571,-14.28572 7.88978,0 14.28572,6.39593 14.28572,14.28572 z"
               sodipodi:ry="14.285714"
               sodipodi:rx="14.285714"
               sodipodi:cy="133.79076"
               sodipodi:cx="-801.42859"
               id="path6028"
               style="fill:#ff0000;fill-opacity:1;stroke:#ffffff;stroke-linejoin:miter;stroke-opacity:1"
               sodipodi:type="arc" />
            <path
               transform="matrix(0.90013096,-0.03137882,-0.01865345,0.89206999,825.31701,390.01)"
               d="m -787.14287,133.79076 c 0,7.88978 -6.39594,14.28571 -14.28572,14.28571 -7.88978,0 -14.28571,-6.39593 -14.28571,-14.28571 0,-7.88979 6.39593,-14.28572 14.28571,-14.28572 7.88978,0 14.28572,6.39593 14.28572,14.28572 z"
               sodipodi:ry="14.285714"
               sodipodi:rx="14.285714"
               sodipodi:cy="133.79076"
               sodipodi:cx="-801.42859"
               id="path6030"
               style="fill:#ff0000;fill-opacity:1;stroke:#ffffff;stroke-linejoin:miter;stroke-opacity:1"
               sodipodi:type="arc" />
            <path
               sodipodi:type="arc"
               style="fill:#ff0000;fill-opacity:1;stroke:#ffffff;stroke-linejoin:miter;stroke-opacity:1"
               id="path6032"
               sodipodi:cx="-801.42859"
               sodipodi:cy="133.79076"
               sodipodi:rx="14.285714"
               sodipodi:ry="14.285714"
               d="m -787.14287,133.79076 c 0,7.88978 -6.39594,14.28571 -14.28572,14.28571 -7.88978,0 -14.28571,-6.39593 -14.28571,-14.28571 0,-7.88979 6.39593,-14.28572 14.28571,-14.28572 7.88978,0 14.28572,6.39593 14.28572,14.28572 z"
               transform="matrix(0.90013096,-0.03137882,-0.01865345,0.89206999,855.40708,388.96106)" />
            <path
               sodipodi:type="arc"
               style="fill:#ff0000;fill-opacity:1;stroke:#ffffff;stroke-linejoin:miter;stroke-opacity:1"
               id="path6034"
               sodipodi:cx="-801.42859"
               sodipodi:cy="133.79076"
               sodipodi:rx="14.285714"
               sodipodi:ry="14.285714"
               d="m -787.14287,133.79076 c 0,7.88978 -6.39594,14.28571 -14.28572,14.28571 -7.88978,0 -14.28571,-6.39593 -14.28571,-14.28571 0,-7.88979 6.39593,-14.28572 14.28571,-14.28572 7.88978,0 14.28572,6.39593 14.28572,14.28572 z"
               transform="matrix(0.90013096,-0.03137882,-0.01865345,0.89206999,886.52591,387.87624)" />
            <path
               sodipodi:type="arc"
               style="fill:#ff0000;fill-opacity:1;stroke:#ffffff;stroke-linejoin:miter;stroke-opacity:1"
               id="path6036"
               sodipodi:cx="-801.42859"
               sodipodi:cy="133.79076"
               sodipodi:rx="14.285714"
               sodipodi:ry="14.285714"
               d="m -787.14287,133.79076 c 0,7.88978 -6.39594,14.28571 -14.28572,14.28571 -7.88978,0 -14.28571,-6.39593 -14.28571,-14.28571 0,-7.88979 6.39593,-14.28572 14.28571,-14.28572 7.88978,0 14.28572,6.39593 14.28572,14.28572 z"
               transform="matrix(0.90013096,-0.03137882,-0.01865345,0.89206999,916.57034,386.82889)" />
            <path
               sodipodi:type="arc"
               style="fill:#ff0000;fill-opacity:1;stroke:#ffffff;stroke-linejoin:miter;stroke-opacity:1"
               id="path6038"
               sodipodi:cx="-801.42859"
               sodipodi:cy="133.79076"
               sodipodi:rx="14.285714"
               sodipodi:ry="14.285714"
               d="m -787.14287,133.79076 c 0,7.88978 -6.39594,14.28571 -14.28572,14.28571 -7.88978,0 -14.28571,-6.39593 -14.28571,-14.28571 0,-7.88979 6.39593,-14.28572 14.28571,-14.28572 7.88978,0 14.28572,6.39593 14.28572,14.28572 z"
               transform="matrix(0.90013096,-0.03137882,-0.01865345,0.89206999,947.68918,385.74408)" />
            <path
               transform="matrix(0.90013096,-0.03137882,-0.01865345,0.89206999,977.77925,384.69513)"
               d="m -787.14287,133.79076 c 0,7.88978 -6.39594,14.28571 -14.28572,14.28571 -7.88978,0 -14.28571,-6.39593 -14.28571,-14.28571 0,-7.88979 6.39593,-14.28572 14.28571,-14.28572 7.88978,0 14.28572,6.39593 14.28572,14.28572 z"
               sodipodi:ry="14.285714"
               sodipodi:rx="14.285714"
               sodipodi:cy="133.79076"
               sodipodi:cx="-801.42859"
               id="path6040"
               style="fill:#ff0000;fill-opacity:1;stroke:#ffffff;stroke-linejoin:miter;stroke-opacity:1"
               sodipodi:type="arc" />
            <path
               transform="matrix(0.90013096,-0.03137882,-0.01865345,0.89206999,1008.8981,383.61032)"
               d="m -787.14287,133.79076 c 0,7.88978 -6.39594,14.28571 -14.28572,14.28571 -7.88978,0 -14.28571,-6.39593 -14.28571,-14.28571 0,-7.88979 6.39593,-14.28572 14.28571,-14.28572 7.88978,0 14.28572,6.39593 14.28572,14.28572 z"
               sodipodi:ry="14.285714"
               sodipodi:rx="14.285714"
               sodipodi:cy="133.79076"
               sodipodi:cx="-801.42859"
               id="path6042"
               style="fill:#ff0000;fill-opacity:1;stroke:#ffffff;stroke-linejoin:miter;stroke-opacity:1"
               sodipodi:type="arc" />
            <path
               transform="matrix(0.90013096,-0.03137882,-0.01865345,0.89206999,793.55345,421.92777)"
               d="m -787.14287,133.79076 c 0,7.88978 -6.39594,14.28571 -14.28572,14.28571 -7.88978,0 -14.28571,-6.39593 -14.28571,-14.28571 0,-7.88979 6.39593,-14.28572 14.28571,-14.28572 7.88978,0 14.28572,6.39593 14.28572,14.28572 z"
               sodipodi:ry="14.285714"
               sodipodi:rx="14.285714"
               sodipodi:cy="133.79076"
               sodipodi:cx="-801.42859"
               id="path6044"
               style="fill:#ff0000;fill-opacity:1;stroke:#ffffff;stroke-linejoin:miter;stroke-opacity:1"
               sodipodi:type="arc" />
            <path
               transform="matrix(0.90013096,-0.03137882,-0.01865345,0.89206999,824.67228,420.84296)"
               d="m -787.14287,133.79076 c 0,7.88978 -6.39594,14.28571 -14.28572,14.28571 -7.88978,0 -14.28571,-6.39593 -14.28571,-14.28571 0,-7.88979 6.39593,-14.28572 14.28571,-14.28572 7.88978,0 14.28572,6.39593 14.28572,14.28572 z"
               sodipodi:ry="14.285714"
               sodipodi:rx="14.285714"
               sodipodi:cy="133.79076"
               sodipodi:cx="-801.42859"
               id="path6046"
               style="fill:#ff0000;fill-opacity:1;stroke:#ffffff;stroke-linejoin:miter;stroke-opacity:1"
               sodipodi:type="arc" />
            <path
               sodipodi:type="arc"
               style="fill:#ff0000;fill-opacity:1;stroke:#ffffff;stroke-linejoin:miter;stroke-opacity:1"
               id="path6048"
               sodipodi:cx="-801.42859"
               sodipodi:cy="133.79076"
               sodipodi:rx="14.285714"
               sodipodi:ry="14.285714"
               d="m -787.14287,133.79076 c 0,7.88978 -6.39594,14.28571 -14.28572,14.28571 -7.88978,0 -14.28571,-6.39593 -14.28571,-14.28571 0,-7.88979 6.39593,-14.28572 14.28571,-14.28572 7.88978,0 14.28572,6.39593 14.28572,14.28572 z"
               transform="matrix(0.90013096,-0.03137882,-0.01865345,0.89206999,854.76236,419.79401)" />
            <path
               sodipodi:type="arc"
               style="fill:#ff0000;fill-opacity:1;stroke:#ffffff;stroke-linejoin:miter;stroke-opacity:1"
               id="path6050"
               sodipodi:cx="-801.42859"
               sodipodi:cy="133.79076"
               sodipodi:rx="14.285714"
               sodipodi:ry="14.285714"
               d="m -787.14287,133.79076 c 0,7.88978 -6.39594,14.28571 -14.28572,14.28571 -7.88978,0 -14.28571,-6.39593 -14.28571,-14.28571 0,-7.88979 6.39593,-14.28572 14.28571,-14.28572 7.88978,0 14.28572,6.39593 14.28572,14.28572 z"
               transform="matrix(0.90013096,-0.03137882,-0.01865345,0.89206999,885.88118,418.7092)" />
            <path
               sodipodi:type="arc"
               style="fill:#ff0000;fill-opacity:1;stroke:#ffffff;stroke-linejoin:miter;stroke-opacity:1"
               id="path6052"
               sodipodi:cx="-801.42859"
               sodipodi:cy="133.79076"
               sodipodi:rx="14.285714"
               sodipodi:ry="14.285714"
               d="m -787.14287,133.79076 c 0,7.88978 -6.39594,14.28571 -14.28572,14.28571 -7.88978,0 -14.28571,-6.39593 -14.28571,-14.28571 0,-7.88979 6.39593,-14.28572 14.28571,-14.28572 7.88978,0 14.28572,6.39593 14.28572,14.28572 z"
               transform="matrix(0.90013096,-0.03137882,-0.01865345,0.89206999,915.92561,417.66184)" />
            <path
               sodipodi:type="arc"
               style="fill:#ff0000;fill-opacity:1;stroke:#ffffff;stroke-linejoin:miter;stroke-opacity:1"
               id="path6054"
               sodipodi:cx="-801.42859"
               sodipodi:cy="133.79076"
               sodipodi:rx="14.285714"
               sodipodi:ry="14.285714"
               d="m -787.14287,133.79076 c 0,7.88978 -6.39594,14.28571 -14.28572,14.28571 -7.88978,0 -14.28571,-6.39593 -14.28571,-14.28571 0,-7.88979 6.39593,-14.28572 14.28571,-14.28572 7.88978,0 14.28572,6.39593 14.28572,14.28572 z"
               transform="matrix(0.90013096,-0.03137882,-0.01865345,0.89206999,947.04445,416.57703)" />
            <path
               transform="matrix(0.90013096,-0.03137882,-0.01865345,0.89206999,977.13452,415.52808)"
               d="m -787.14287,133.79076 c 0,7.88978 -6.39594,14.28571 -14.28572,14.28571 -7.88978,0 -14.28571,-6.39593 -14.28571,-14.28571 0,-7.88979 6.39593,-14.28572 14.28571,-14.28572 7.88978,0 14.28572,6.39593 14.28572,14.28572 z"
               sodipodi:ry="14.285714"
               sodipodi:rx="14.285714"
               sodipodi:cy="133.79076"
               sodipodi:cx="-801.42859"
               id="path6056"
               style="fill:#ff0000;fill-opacity:1;stroke:#ffffff;stroke-linejoin:miter;stroke-opacity:1"
               sodipodi:type="arc" />
            <path
               transform="matrix(0.90013096,-0.03137882,-0.01865345,0.89206999,1008.2533,414.44327)"
               d="m -787.14287,133.79076 c 0,7.88978 -6.39594,14.28571 -14.28572,14.28571 -7.88978,0 -14.28571,-6.39593 -14.28571,-14.28571 0,-7.88979 6.39593,-14.28572 14.28571,-14.28572 7.88978,0 14.28572,6.39593 14.28572,14.28572 z"
               sodipodi:ry="14.285714"
               sodipodi:rx="14.285714"
               sodipodi:cy="133.79076"
               sodipodi:cx="-801.42859"
               id="path6058"
               style="fill:#ff0000;fill-opacity:1;stroke:#ffffff;stroke-linejoin:miter;stroke-opacity:1"
               sodipodi:type="arc" />
            <path
               sodipodi:type="arc"
               style="fill:#ff0000;fill-opacity:1;stroke:#ffffff;stroke-linejoin:miter;stroke-opacity:1"
               id="path6060"
               sodipodi:cx="-801.42859"
               sodipodi:cy="133.79076"
               sodipodi:rx="14.285714"
               sodipodi:ry="14.285714"
               d="m -787.14287,133.79076 c 0,7.88978 -6.39594,14.28571 -14.28572,14.28571 -7.88978,0 -14.28571,-6.39593 -14.28571,-14.28571 0,-7.88979 6.39593,-14.28572 14.28571,-14.28572 7.88978,0 14.28572,6.39593 14.28572,14.28572 z"
               transform="matrix(0.90013096,-0.03137882,-0.01865345,0.89206999,792.90872,452.76072)" />
            <path
               sodipodi:type="arc"
               style="fill:#ff0000;fill-opacity:1;stroke:#ffffff;stroke-linejoin:miter;stroke-opacity:1"
               id="path6062"
               sodipodi:cx="-801.42859"
               sodipodi:cy="133.79076"
               sodipodi:rx="14.285714"
               sodipodi:ry="14.285714"
               d="m -787.14287,133.79076 c 0,7.88978 -6.39594,14.28571 -14.28572,14.28571 -7.88978,0 -14.28571,-6.39593 -14.28571,-14.28571 0,-7.88979 6.39593,-14.28572 14.28571,-14.28572 7.88978,0 14.28572,6.39593 14.28572,14.28572 z"
               transform="matrix(0.90013096,-0.03137882,-0.01865345,0.89206999,824.02756,451.67591)" />
            <path
               transform="matrix(0.90013096,-0.03137882,-0.01865345,0.89206999,854.11763,450.62696)"
               d="m -787.14287,133.79076 c 0,7.88978 -6.39594,14.28571 -14.28572,14.28571 -7.88978,0 -14.28571,-6.39593 -14.28571,-14.28571 0,-7.88979 6.39593,-14.28572 14.28571,-14.28572 7.88978,0 14.28572,6.39593 14.28572,14.28572 z"
               sodipodi:ry="14.285714"
               sodipodi:rx="14.285714"
               sodipodi:cy="133.79076"
               sodipodi:cx="-801.42859"
               id="path6064"
               style="fill:#ff0000;fill-opacity:1;stroke:#ffffff;stroke-linejoin:miter;stroke-opacity:1"
               sodipodi:type="arc" />
            <path
               transform="matrix(0.90013096,-0.03137882,-0.01865345,0.89206999,885.23646,449.54215)"
               d="m -787.14287,133.79076 c 0,7.88978 -6.39594,14.28571 -14.28572,14.28571 -7.88978,0 -14.28571,-6.39593 -14.28571,-14.28571 0,-7.88979 6.39593,-14.28572 14.28571,-14.28572 7.88978,0 14.28572,6.39593 14.28572,14.28572 z"
               sodipodi:ry="14.285714"
               sodipodi:rx="14.285714"
               sodipodi:cy="133.79076"
               sodipodi:cx="-801.42859"
               id="path6066"
               style="fill:#ff0000;fill-opacity:1;stroke:#ffffff;stroke-linejoin:miter;stroke-opacity:1"
               sodipodi:type="arc" />
            <path
               transform="matrix(0.90013096,-0.03137882,-0.01865345,0.89206999,915.28089,448.49479)"
               d="m -787.14287,133.79076 c 0,7.88978 -6.39594,14.28571 -14.28572,14.28571 -7.88978,0 -14.28571,-6.39593 -14.28571,-14.28571 0,-7.88979 6.39593,-14.28572 14.28571,-14.28572 7.88978,0 14.28572,6.39593 14.28572,14.28572 z"
               sodipodi:ry="14.285714"
               sodipodi:rx="14.285714"
               sodipodi:cy="133.79076"
               sodipodi:cx="-801.42859"
               id="path6068"
               style="fill:#ff0000;fill-opacity:1;stroke:#ffffff;stroke-linejoin:miter;stroke-opacity:1"
               sodipodi:type="arc" />
            <path
               transform="matrix(0.90013096,-0.03137882,-0.01865345,0.89206999,946.39972,447.40998)"
               d="m -787.14287,133.79076 c 0,7.88978 -6.39594,14.28571 -14.28572,14.28571 -7.88978,0 -14.28571,-6.39593 -14.28571,-14.28571 0,-7.88979 6.39593,-14.28572 14.28571,-14.28572 7.88978,0 14.28572,6.39593 14.28572,14.28572 z"
               sodipodi:ry="14.285714"
               sodipodi:rx="14.285714"
               sodipodi:cy="133.79076"
               sodipodi:cx="-801.42859"
               id="path6070"
               style="fill:#ff0000;fill-opacity:1;stroke:#ffffff;stroke-linejoin:miter;stroke-opacity:1"
               sodipodi:type="arc" />
            <path
               sodipodi:type="arc"
               style="fill:#ff0000;fill-opacity:1;stroke:#ffffff;stroke-linejoin:miter;stroke-opacity:1"
               id="path6072"
               sodipodi:cx="-801.42859"
               sodipodi:cy="133.79076"
               sodipodi:rx="14.285714"
               sodipodi:ry="14.285714"
               d="m -787.14287,133.79076 c 0,7.88978 -6.39594,14.28571 -14.28572,14.28571 -7.88978,0 -14.28571,-6.39593 -14.28571,-14.28571 0,-7.88979 6.39593,-14.28572 14.28571,-14.28572 7.88978,0 14.28572,6.39593 14.28572,14.28572 z"
               transform="matrix(0.90013096,-0.03137882,-0.01865345,0.89206999,976.4898,446.36103)" />
            <path
               sodipodi:type="arc"
               style="fill:#ff0000;fill-opacity:1;stroke:#ffffff;stroke-linejoin:miter;stroke-opacity:1"
               id="path6074"
               sodipodi:cx="-801.42859"
               sodipodi:cy="133.79076"
               sodipodi:rx="14.285714"
               sodipodi:ry="14.285714"
               d="m -787.14287,133.79076 c 0,7.88978 -6.39594,14.28571 -14.28572,14.28571 -7.88978,0 -14.28571,-6.39593 -14.28571,-14.28571 0,-7.88979 6.39593,-14.28572 14.28571,-14.28572 7.88978,0 14.28572,6.39593 14.28572,14.28572 z"
               transform="matrix(0.90013096,-0.03137882,-0.01865345,0.89206999,1007.6086,445.27622)" />
          </g>
        </g>
      </g>
    </g>
    <path
       inkscape:connector-curvature="0"
       id="path6943"
       style="fill:#8686bf;fill-opacity:1;fill-rule:evenodd;stroke:#000000;stroke-linejoin:miter;stroke-opacity:1"
       d="m 281.59663,773.56789 101.62339,38.60776 0,-103.27132 -101.26625,-37.84062 z"
       sodipodi:nodetypes="ccccc" />
    <path
       inkscape:connector-curvature="0"
       id="path6941"
       style="fill:#d7d7ff;fill-opacity:1;fill-rule:evenodd;stroke:#000000;stroke-linejoin:miter;stroke-opacity:1"
       d="m 383.22001,812.53279 0.35715,-103.62846 109.09906,-40.30721 -1.26269,99.25669 z"
       sodipodi:nodetypes="ccccc" />
  </g>
</svg>
